<svg width="36" height="40" viewBox="0 0 36 40" fill="none" xmlns="http://www.w3.org/2000/svg">
<path d="M12.3191 36.2012C9.43161 33.4057 7.77867 28.952 7.35972 22.8402H1.48009C0.851739 22.8402 0.410464 22.5502 0.155949 21.9702C-0.0979377 21.3606 0.00644654 20.8401 0.470281 20.4089L11.9603 8.98906C12.2449 8.7064 12.5814 8.56531 12.9703 8.56531C13.3593 8.56531 13.6957 8.70648 13.9801 8.98906L25.47 20.4092C25.7543 20.6773 25.8964 21.0116 25.8964 21.4131C25.8964 21.5915 25.859 21.7773 25.7843 21.9706C25.5297 22.5505 25.0889 22.8409 24.4602 22.8409H18.8273C19.0218 25.2348 19.4145 27.2234 20.0055 28.8077C20.5965 30.3913 21.423 31.6588 22.4853 32.6106C24.9538 34.8264 29.18 35.6146 35.1648 34.9752C35.5539 34.9458 35.8082 35.1163 35.9278 35.4882C35.9429 35.5328 35.9502 35.5997 35.9502 35.6889C35.9502 35.9862 35.823 36.1942 35.5687 36.3134L34.6711 36.7594C34.252 36.9674 33.5749 37.2685 32.6399 37.6626C31.7044 38.0564 30.7696 38.4138 29.8344 38.7336C28.8996 39.0534 27.8673 39.3394 26.7378 39.5923C25.6078 39.845 24.6093 39.9715 23.7418 39.9715C18.7148 39.9711 14.9075 38.7145 12.3191 36.2012Z" fill="white"/>
<path opacity="0.4" d="M12.9703 3.35222C12.5811 3.35222 12.2446 3.49354 11.9603 3.77597L1.48009 14.7365C0.851739 14.7365 0.410464 14.4463 0.155949 13.8664C-0.0979377 13.2567 0.00644654 12.7363 0.470281 12.3052L11.9603 0.884901C12.2448 0.602479 12.5813 0.461151 12.9703 0.461151C13.3593 0.461151 13.6957 0.602479 13.9801 0.884901L25.47 12.3052C25.7543 12.5728 25.8964 12.9074 25.8964 13.3091C25.8964 13.4876 25.859 13.6734 25.7843 13.8667C25.5297 14.4466 25.0889 14.7369 24.4602 14.7369L13.98 3.77597C13.6957 3.49354 13.3595 3.35222 12.9703 3.35222Z" fill="white"/>
</svg>
