<svg width="26" height="16" viewBox="0 0 26 16" fill="none" xmlns="http://www.w3.org/2000/svg">
<path d="M7.31201 0C11.3503 0 14.6238 3.48242 14.6238 7.77791C14.6238 12.0734 11.3501 15.5556 7.31201 15.5556C3.27394 15.5556 0 12.0734 0 7.77791C0 3.48242 3.27369 0 7.31201 0ZM18.9888 0.45561C21.0079 0.45561 22.6448 3.73359 22.6448 7.77791H22.645C22.645 11.8212 21.0082 15.1002 18.989 15.1002C16.9699 15.1002 15.333 11.8212 15.333 7.77791C15.333 3.73463 16.9696 0.45561 18.9888 0.45561ZM24.6401 1.21828C25.3501 1.21828 25.9259 4.15508 25.9259 7.77791C25.9259 11.3997 25.3503 14.3375 24.6401 14.3375C23.9299 14.3375 23.3545 11.4005 23.3545 7.77791C23.3545 4.15534 23.9301 1.21828 24.6401 1.21828Z" fill="#FD5426"/>
</svg>
