<svg width="16" height="20" viewBox="0 0 16 20" fill="none" xmlns="http://www.w3.org/2000/svg">
<path fill-rule="evenodd" clip-rule="evenodd" d="M7.99962 14.7492C7.81707 14.749 7.63635 14.7132 7.46779 14.6439C7.29923 14.5746 7.14613 14.4732 7.01721 14.3455C6.8883 14.2177 6.78609 14.0661 6.71645 13.8992C6.64681 13.7324 6.61109 13.5537 6.61133 13.3732V13.3329H5.19288V13.3732C5.19288 14.1101 5.48896 14.8167 6.01599 15.3378C6.54303 15.8588 7.25783 16.1515 8.00317 16.1515C8.74851 16.1515 9.46332 15.8588 9.99035 15.3378C10.5174 14.8167 10.8135 14.1101 10.8135 13.3732C10.8163 13.3599 10.8163 13.3462 10.8135 13.3329H9.39502V13.3732C9.39502 13.554 9.35895 13.7331 9.2889 13.9002C9.21884 14.0672 9.11616 14.219 8.98673 14.3468C8.8573 14.4746 8.70364 14.5759 8.53457 14.645C8.3655 14.714 8.18433 14.7494 8.0014 14.7492H7.99962ZM5.27799 6.03367C4.87759 6.03402 4.48628 6.15171 4.15353 6.37189C3.82078 6.59206 3.56153 6.90483 3.40855 7.27065C3.25557 7.63647 3.21573 8.03892 3.29405 8.42712C3.37238 8.81533 3.56536 9.17187 3.84861 9.45166C4.13186 9.73145 4.49264 9.92192 4.88537 9.99902C5.2781 10.0761 5.68515 10.0364 6.05504 9.8848C6.42493 9.73323 6.74104 9.47667 6.96345 9.14751C7.18586 8.81835 7.30458 8.43139 7.30458 8.03554C7.30458 7.77251 7.25215 7.51205 7.15028 7.26906C7.04841 7.02608 6.8991 6.80529 6.71089 6.61938C6.52268 6.43347 6.29926 6.28605 6.05339 6.18555C5.80753 6.08506 5.54404 6.03344 5.27799 6.03367ZM4.63436 8.03554C4.63401 7.90962 4.67145 7.7864 4.74196 7.68153C4.81246 7.57666 4.91287 7.49484 5.03045 7.44641C5.14802 7.39798 5.27749 7.38512 5.40246 7.40948C5.52742 7.43383 5.64227 7.49427 5.73246 7.58319C5.82265 7.67211 5.88412 7.78551 5.9091 7.90899C5.93407 8.03247 5.92144 8.16049 5.87278 8.27687C5.82412 8.39324 5.74162 8.4927 5.63573 8.5627C5.52985 8.6327 5.40536 8.67008 5.27799 8.67008C5.10759 8.67008 4.94414 8.60329 4.82349 8.48434C4.70284 8.36539 4.63483 8.204 4.63436 8.03554ZM1.85775 4.50337C5.75848 3.27633 7.24075 2.52258 7.90919 2.14745C8.57764 2.52258 10.0635 3.27808 13.9606 4.50337C13.9606 4.9381 14.2089 18.2516 7.90919 18.2411C1.60953 18.2305 1.85775 4.94686 1.85775 4.50337ZM7.90919 20.0062C16.0546 20.0255 15.7355 3.78291 15.7355 3.22198C10.6929 1.64434 8.77622 0.655716 7.90919 0.175415C7.04749 0.655716 5.12727 1.64084 0.0829231 3.22198C0.0829231 3.78291 -0.236224 20.0255 7.90919 20.0062ZM8.56877 7.31507V8.6613H12.4961V7.31507H8.56877Z" fill="#FD5426"/>
</svg>
