<svg width="21" height="20" viewBox="0 0 21 20" fill="none" xmlns="http://www.w3.org/2000/svg">
<path fill-rule="evenodd" clip-rule="evenodd" d="M10.4975 1.6638C5.8936 1.6638 2.16136 5.39604 2.16136 9.99998C2.16136 14.6039 5.8936 18.3362 10.4975 18.3362C15.1015 18.3362 18.8337 14.6039 18.8337 9.99998C18.8337 5.39604 15.1015 1.6638 10.4975 1.6638ZM0.645691 9.99998C0.645691 4.55896 5.05652 0.148132 10.4975 0.148132C15.9386 0.148132 20.3494 4.55896 20.3494 9.99998C20.3494 15.441 15.9386 19.8518 10.4975 19.8518C5.05652 19.8518 0.645691 15.441 0.645691 9.99998Z" fill="#FD5426"/>
<path fill-rule="evenodd" clip-rule="evenodd" d="M0.645691 9.99998C0.645691 9.58144 0.984985 9.24215 1.40353 9.24215H19.5916C20.0101 9.24215 20.3494 9.58144 20.3494 9.99998C20.3494 10.4185 20.0101 10.7578 19.5916 10.7578H1.40353C0.984985 10.7578 0.645691 10.4185 0.645691 9.99998Z" fill="#FD5426"/>
<path fill-rule="evenodd" clip-rule="evenodd" d="M8.51483 4.04205C7.87836 5.5282 7.4662 7.63413 7.4662 9.99998C7.4662 12.3658 7.87836 14.4718 8.51483 15.9579C8.83364 16.7024 9.19381 17.2563 9.55515 17.6132C9.91324 17.9669 10.2308 18.0899 10.4975 18.0899C10.7643 18.0899 11.0818 17.9669 11.4399 17.6132C11.8013 17.2563 12.1614 16.7024 12.4803 15.9579C13.1167 14.4718 13.5289 12.3658 13.5289 9.99998C13.5289 7.63413 13.1167 5.5282 12.4803 4.04205C12.1614 3.29761 11.8013 2.74362 11.4399 2.38676C11.0818 2.0331 10.7643 1.9101 10.4975 1.9101C10.2308 1.9101 9.91324 2.0331 9.55515 2.38676C9.19381 2.74362 8.83364 3.29761 8.51483 4.04205ZM8.4901 1.30836C9.03867 0.766584 9.7179 0.394428 10.4975 0.394428C11.2772 0.394428 11.9564 0.766584 12.505 1.30836C13.0503 1.84694 13.5066 2.58867 13.8735 3.44535C14.6085 5.16144 15.0446 7.47938 15.0446 9.99998C15.0446 12.5206 14.6085 14.8385 13.8735 16.5546C13.5066 17.4113 13.0503 18.153 12.505 18.6916C11.9564 19.2334 11.2772 19.6055 10.4975 19.6055C9.7179 19.6055 9.03867 19.2334 8.4901 18.6916C7.94478 18.153 7.48845 17.4113 7.12155 16.5546C6.38661 14.8385 5.95053 12.5206 5.95053 9.99998C5.95053 7.47938 6.38661 5.16144 7.12155 3.44535C7.48845 2.58867 7.94478 1.84694 8.4901 1.30836Z" fill="#FD5426"/>
</svg>
