<svg xmlns="http://www.w3.org/2000/svg" width="21" height="20" viewBox="0 0 21 20">
    <path fill="#000000" fill-rule="evenodd" d="M7.125 16.125c0 .111-.076.174-.23.187-.152.014-.228-.034-.228-.145 0-.111.07-.167.208-.167a.34.34 0 0 1 .187.042c.042.027.063.055.063.083zm-1.775-.004c.028-.11.111-.146.25-.104.139.042.201.097.187.167a.195.195 0 0 1-.104.146.177.177 0 0 1-.166 0 .556.556 0 0 1-.146-.105c-.042-.041-.049-.076-.021-.104zM7.523 16c.139 0 .215.042.229.125.014.083-.049.153-.188.208a.462.462 0 0 1-.145-.02c-.042-.014-.07-.063-.084-.146-.014-.084.049-.14.188-.167zm2.685-16c1.89 0 3.64.441 5.25 1.323 1.611.882 2.875 2.082 3.792 3.598.944 1.571 1.417 3.294 1.417 5.169 0 2.288-.646 4.335-1.938 6.14-1.291 1.806-2.979 3.053-5.062 3.742-.223.056-.396.028-.521-.082a.529.529 0 0 1-.188-.414v-3.473c0-.882-.236-1.516-.708-1.902 1.028-.11 1.792-.248 2.292-.414.777-.276 1.375-.69 1.791-1.24.473-.717.709-1.696.709-2.936 0-.524-.098-.979-.292-1.365-.139-.276-.403-.62-.792-1.034.111-.275.18-.606.209-.992a4.63 4.63 0 0 0-.292-1.82c-.278-.082-.667-.027-1.167.166-.333.138-.722.33-1.166.579L13 5.417a9.51 9.51 0 0 0-2.646-.372c-.903 0-1.77.124-2.604.372l-.542-.372A9.4 9.4 0 0 0 6 4.465c-.5-.192-.875-.247-1.125-.165a3.807 3.807 0 0 0-.292 1.82c0 .386.056.703.167.951-.333.413-.576.793-.73 1.137-.152.345-.228.779-.228 1.303 0 1.24.222 2.205.666 2.894.39.58.973 1.006 1.75 1.282.5.166 1.25.303 2.25.414-.36.33-.583.8-.666 1.406-.473.22-.93.303-1.375.248-.723-.055-1.278-.428-1.667-1.117a2.158 2.158 0 0 0-.667-.744 4.316 4.316 0 0 0-.625-.29l-.291-.04c-.306 0-.466.047-.48.144-.013.096.05.2.188.31l.208.165c.195.11.39.29.584.538.166.193.305.413.416.661l.167.331c.139.414.403.73.792.951.333.193.736.317 1.208.373.333.027.68.013 1.042-.042l.458-.041.042 2.522a.529.529 0 0 1-.188.414c-.125.11-.298.138-.52.082-2.112-.689-3.82-1.936-5.126-3.742C.653 14.425 0 12.378 0 10.09c0-1.875.444-3.584 1.333-5.128A9.647 9.647 0 0 1 5 1.323C6.556.441 8.292 0 10.208 0zM4.033 14.033c.056-.055.125-.041.209.042.083.083.097.153.041.208-.055.056-.125.042-.208-.041-.083-.084-.097-.153-.042-.209zm-.69.015c.055-.056.125-.063.208-.021.083.041.111.097.083.166-.028.07-.09.077-.187.021-.097-.055-.132-.11-.104-.166zm1.365 1.313c.028-.028.07-.035.125-.02a.31.31 0 0 1 .146.083.31.31 0 0 1 .083.145c.014.056.007.098-.02.125-.084.084-.18.07-.292-.041-.056-.056-.083-.111-.083-.167 0-.055.014-.097.041-.125zm0-.667c.056-.027.104-.034.146-.02.042.013.077.048.104.104.084.11.084.194 0 .25-.027.028-.062.028-.104 0a1.362 1.362 0 0 0-.146-.084c-.055-.138-.055-.222 0-.25z"/>
</svg>
