<svg xmlns="http://www.w3.org/2000/svg" width="18" height="14" viewBox="0 0 18 14">
    <path fill="#000000" fill-rule="nonzero" d="M17.235 1.656a7.06 7.06 0 0 1-2.03.557A3.55 3.55 0 0 0 16.76.258a7.128 7.128 0 0 1-2.246.859A3.536 3.536 0 0 0 8.488 4.34 10.038 10.038 0 0 1 1.2.646a3.509 3.509 0 0 0-.478 1.777c0 1.227.624 2.31 1.572 2.943a3.536 3.536 0 0 1-1.601-.444v.044a3.54 3.54 0 0 0 2.835 3.467c-.296.08-.608.124-.931.124-.229 0-.45-.023-.666-.066a3.538 3.538 0 0 0 3.302 2.456 7.094 7.094 0 0 1-4.39 1.51c-.286 0-.567-.017-.844-.048A9.994 9.994 0 0 0 5.42 14c6.504 0 10.059-5.387 10.059-10.06l-.012-.457a7.06 7.06 0 0 0 1.768-1.827z"/>
</svg>
