<svg xmlns="http://www.w3.org/2000/svg" width="19" height="19" viewBox="0 0 19 19">
    <path fill="#000000" fill-rule="evenodd" d="M0 0h19v19H0V0zm15.777 4.496v-.213h-3.52L9.754 10.56 6.871 4.283H3.18v.213l1.187 1.441a.423.423 0 0 1 .17.425v5.64a.682.682 0 0 1-.17.552l-1.357 1.611v.212h3.817v-.212l-1.357-1.611a.682.682 0 0 1-.17-.552V7.125l3.35 7.252h.382l2.842-7.252v5.81c0 .113-.028.198-.085.255l-1.018 1.018v.212h5.005v-.212l-1.018-.976a.407.407 0 0 1-.127-.297V5.768c0-.113.042-.212.127-.297l1.018-.975z"/>
</svg>
