<svg width="56" height="48" viewBox="0 0 56 48" fill="none" xmlns="http://www.w3.org/2000/svg"><path fill-rule="evenodd" clip-rule="evenodd" d="M31.688 3.20988C38.9038 -2.89797 50.9261 0.30391 54.6191 8.71743L54.6198 8.71869C55.1953 9.95002 55.6084 11.286 55.8253 12.7114C56.1306 14.723 56.0497 16.9088 55.4718 19.2273C51.3618 35.7255 28.0022 48 28.0022 48C28.0022 48 4.64496 35.7244 0.532627 19.2273C-2.23583 8.122 6.25475 0 15.2085 0C19.8493 0 24.6149 2.18195 28.0019 7.26139C29.1021 5.61168 30.3489 4.27267 31.688 3.20988ZM31.0726 7.23373C37.0859 2.30805 47.1044 4.89021 50.1819 11.6753C50.6615 12.6683 51.0063 13.7467 51.1871 14.8962C51.4415 16.5185 51.3741 18.2812 50.8925 20.151C47.4675 33.456 28.0012 43.3548 28.0012 43.3548C28.0012 43.3548 8.53681 33.4551 5.10987 20.151C2.80282 11.1951 9.8783 4.64512 17.3397 4.64512C21.2071 4.64512 25.1784 6.40476 28.0009 10.5011C28.9178 9.17067 29.9568 8.09083 31.0726 7.23373Z" fill="url(#paint0_linear_16_448)"></path><defs><linearGradient id="paint0_linear_16_448" x1="28" y1="0" x2="28" y2="47.0204" gradientUnits="userSpaceOnUse"><stop stop-color="#2696FA"></stop><stop offset="0.502604" stop-color="#2696FA"></stop><stop offset="0.502704" stop-color="#E7CD54"></stop></linearGradient></defs></svg>