<?xml version="1.0" encoding="utf-8"?>
<!-- Generator: Adobe Illustrator 19.0.0, SVG Export Plug-In . SVG Version: 6.00 Build 0)  -->
<svg version="1.1" id="Layer_1" xmlns="http://www.w3.org/2000/svg" xmlns:xlink="http://www.w3.org/1999/xlink" x="0px" y="0px"
	 viewBox="-281 400.9 31.2 40" style="enable-background:new -281 400.9 31.2 40;" xml:space="preserve">
<style type="text/css">
	.st0{fill:#FFFFFF;}
</style>
<g>
	<path class="st0" d="M-277.5,409.6c7.8-2.5,10.7-4,12.1-4.7c1.3,0.8,4.3,2.3,12,4.7c0,0.9,0.5,27.7-12,27.7
		C-277.9,437.3-277.5,410.5-277.5,409.6z M-265.4,440.8c16.2,0,15.6-32.7,15.6-33.8c-10.1-3.2-13.9-5.2-15.6-6.2
		c-1.7,1-5.5,2.9-15.6,6.2C-281,408.2-281.6,440.9-265.4,440.8L-265.4,440.8z"/>
	<path class="st0" d="M-264.8,430.3c-1.5,0-2.7-1.2-2.7-2.7v-0.4h-3.1v0.1c0,2.1,1.1,4,2.9,5c4.1,2.2,8.6-0.9,8.6-4.9v-0.2h-3.1v0.2
		c0,1.5-1.1,2.7-2.5,2.7C-264.7,430.3-264.7,430.3-264.8,430.3z M-255.9,417.9l-7.5,0v-2.7l7.5,0V417.9z M-266.5,415.2
		c-0.6-1.5-2.1-2.4-3.7-2.4c-2.3,0-4.1,1.9-4,4.2c0,2.1,1.8,3.8,3.9,3.9C-267.5,420.9-265.4,418.1-266.5,415.2z M-270.2,418
		c-0.7,0-1.3-0.6-1.3-1.3c0-0.8,0.7-1.4,1.5-1.3c0.5,0.1,0.9,0.5,1,1c0.2,0.7-0.3,1.4-0.9,1.5C-270,418-270.1,418-270.2,418
		L-270.2,418z"/>
</g>
</svg>
