<svg viewBox="0 0 239 59" fill="none" xmlns="http://www.w3.org/2000/svg" class="ds-logo-svg"><path d="M29.5 14.449l14.077 24.383H15.423L29.5 14.449z" fill="currentColor"></path><path fill-rule="evenodd" clip-rule="evenodd" d="M29.5 55C43.583 55 55 43.583 55 29.5S43.583 4 29.5 4 4 15.417 4 29.5 15.417 55 29.5 55zm0 4C45.792 59 59 45.792 59 29.5S45.792 0 29.5 0 0 13.208 0 29.5 13.208 59 29.5 59z" fill="currentColor"></path><path d="M118.83 44.291a21.405 21.405 0 0 1-6.562 3.867 21.481 21.481 0 0 1-7.53 1.348c-1.992 0-3.916-.264-5.771-.791a22.06 22.06 0 0 1-5.186-2.168 22.557 22.557 0 0 1-4.394-3.428 22.554 22.554 0 0 1-3.428-4.394 23 23 0 0 1-2.197-5.186A21.766 21.766 0 0 1 83 27.768c0-1.993.254-3.916.762-5.772a22.268 22.268 0 0 1 2.197-5.185 22.172 22.172 0 0 1 3.428-4.424 21.69 21.69 0 0 1 4.394-3.399 21.348 21.348 0 0 1 5.186-2.197A21.006 21.006 0 0 1 104.738 6c2.598 0 5.108.45 7.53 1.348a20.656 20.656 0 0 1 6.562 3.867l-4.453 7.324a12.427 12.427 0 0 0-4.365-3.047 13.21 13.21 0 0 0-5.274-1.084c-1.855 0-3.593.352-5.215 1.055a13.592 13.592 0 0 0-4.248 2.871c-1.21 1.191-2.168 2.607-2.87 4.248-.704 1.621-1.055 3.35-1.055 5.186 0 1.835.351 3.564 1.054 5.185a13.692 13.692 0 0 0 2.871 4.219 13.596 13.596 0 0 0 4.248 2.871c1.622.703 3.36 1.055 5.215 1.055 1.836 0 3.594-.352 5.274-1.055a12.766 12.766 0 0 0 4.365-3.076l4.453 7.324zM138.131 48.598h-8.408V6.586h8.408v42.012zM193.115 27.768c0 1.992-.263 3.916-.791 5.771a22.046 22.046 0 0 1-2.168 5.186 21.67 21.67 0 0 1-3.398 4.394 22.543 22.543 0 0 1-4.395 3.428 21.384 21.384 0 0 1-5.185 2.168c-1.856.527-3.78.79-5.772.79-1.992 0-3.916-.263-5.771-.79a22.059 22.059 0 0 1-5.186-2.168 22.566 22.566 0 0 1-4.394-3.428 22.56 22.56 0 0 1-3.428-4.394 22.958 22.958 0 0 1-2.197-5.186 21.758 21.758 0 0 1-.762-5.771c0-1.993.254-3.916.762-5.772a22.23 22.23 0 0 1 2.197-5.185 22.562 22.562 0 0 1 3.428-4.395 21.698 21.698 0 0 1 4.394-3.398 22.06 22.06 0 0 1 5.186-2.168 21.004 21.004 0 0 1 5.771-.791c1.992 0 3.916.263 5.772.79a21.385 21.385 0 0 1 5.185 2.169 21.676 21.676 0 0 1 4.395 3.398 21.673 21.673 0 0 1 3.398 4.395 21.379 21.379 0 0 1 2.168 5.185c.528 1.856.791 3.78.791 5.772zm-8.349 0c0-1.836-.352-3.565-1.055-5.186-.703-1.64-1.66-3.057-2.871-4.248-1.192-1.211-2.608-2.168-4.248-2.871-1.621-.703-3.35-1.055-5.186-1.055-1.855 0-3.594.352-5.215 1.055a13.594 13.594 0 0 0-4.248 2.871c-1.211 1.191-2.168 2.607-2.871 4.248-.703 1.621-1.054 3.35-1.054 5.186 0 1.835.351 3.564 1.054 5.185a13.688 13.688 0 0 0 2.871 4.219 13.598 13.598 0 0 0 4.248 2.871c1.621.703 3.36 1.055 5.215 1.055 1.836 0 3.565-.352 5.186-1.055 1.64-.703 3.056-1.66 4.248-2.871a13.688 13.688 0 0 0 2.871-4.219c.703-1.621 1.055-3.35 1.055-5.185zM238.256 48.598h-8.994L213.061 20.94v27.657h-8.409V6.586h8.994l16.202 27.686V6.586h8.408v42.012z" fill="currentColor"></path></svg>