<svg width="147" height="131" viewBox="0 0 147 131" fill="none" xmlns="http://www.w3.org/2000/svg">
<path fill-rule="evenodd" clip-rule="evenodd" d="M36.75 128.985C24.899 122.168 27.5326 101.836 30.4055 90.3541C19.0334 87.0052 0 79.2311 0 65.4769C0 51.8423 19.0334 43.9485 30.4055 40.5997C27.5326 29.2375 24.899 8.90521 36.75 1.96832C48.601 -4.84894 65.0008 7.5896 73.5 15.7225C82.1189 7.70923 98.399 -4.84894 110.25 1.96832C122.101 8.78564 119.467 29.1179 116.594 40.5997C127.967 43.9485 147 51.8423 147 65.4769C147 79.1115 127.967 87.0052 116.594 90.3541C119.348 101.836 122.101 122.168 110.25 128.985C102.469 133.53 91.2166 129.942 79.605 120.494C77.57 118.939 75.535 117.145 73.5 115.231C65.0008 123.364 48.601 135.922 36.75 128.985ZM40.2215 7.94843C48.3616 3.28394 62.6067 14.8853 68.7117 20.7458C64.522 25.1711 60.452 30.314 56.3819 35.8157C49.4389 36.5333 42.9748 37.6097 36.9894 38.9253C35.0741 30.7924 31.9617 12.7325 40.2215 7.94843ZM81.4417 34.8168L81.7598 35.2177C76.2532 34.9785 70.7467 34.9785 65.3599 35.2177C67.9935 31.7492 70.7467 28.52 73.5 25.5299C76.2621 28.2896 78.8029 31.4915 81.4417 34.8168ZM95.6458 87.7228C100.075 87.1248 104.265 86.4072 108.215 85.4504C107.018 81.6232 105.581 77.5567 103.906 73.4902C101.392 78.3939 98.6384 83.178 95.6458 87.7228ZM78.2883 110.328C82.478 105.902 86.6678 100.759 90.6181 95.1381C97.5611 94.5402 104.025 93.4637 110.011 92.0285C111.926 100.281 115.038 118.341 106.779 123.125C101.751 125.995 93.2516 122.766 83.7948 115.231C81.9992 113.676 80.2036 112.122 78.2883 110.328ZM39.2638 65.4769C36.3909 71.8157 33.9967 77.9155 32.2011 83.7759C24.0611 81.5035 6.82329 75.045 6.82329 65.4769C6.82329 56.0283 24.0611 49.5698 32.2011 47.1778C33.9967 53.0383 36.3909 59.138 39.2638 65.4769ZM43.0945 57.4636C45.6083 52.5599 48.3616 47.8954 51.3542 43.3506C46.9251 43.9486 42.7354 44.6662 38.785 45.623C39.9821 49.3307 41.4186 53.3972 43.0945 57.4636ZM107.736 65.4769C110.609 59.138 113.003 53.0383 114.799 47.1778C122.939 49.5698 140.177 56.0283 140.177 65.4769C140.177 74.9254 122.819 81.3839 114.799 83.7759C113.003 77.9155 110.609 71.8157 107.736 65.4769ZM68.7117 110.328C64.522 105.902 60.452 100.759 56.3819 95.1381C49.5586 94.5402 42.9748 93.4637 36.9894 92.0285C34.9544 100.161 31.9617 118.341 40.2215 123.125C48.4813 127.909 62.6067 116.188 68.7117 110.328ZM81.7598 95.8557C79.0065 99.3242 76.2532 102.553 73.5 105.543C70.7467 102.553 67.9935 99.3242 65.3599 95.8557C70.8664 96.0949 76.2532 96.0949 81.7598 95.8557ZM86.9072 88.6796C91.9348 81.3839 96.364 73.6098 100.195 65.5965C96.364 57.5831 91.8152 49.809 86.7875 42.5133C77.9292 41.9153 68.9511 41.9153 59.9731 42.5133C54.9454 49.809 50.5163 57.7028 46.566 65.5965C50.3966 73.6098 54.9454 81.3839 59.9731 88.6796C69.0709 89.2776 78.0489 89.2776 86.9072 88.6796ZM108.335 45.5034C107.138 49.3306 105.581 53.3971 103.906 57.4636C101.392 52.6795 98.6384 47.8954 95.7655 43.231C100.195 43.829 104.384 44.5466 108.335 45.5034ZM110.011 38.9253C112.046 30.7924 115.038 12.6129 106.779 7.94843C98.5187 3.16437 84.2736 14.8853 78.2883 20.6262C82.478 25.1711 86.6678 30.1943 90.6181 35.8157C97.5611 36.5333 104.145 37.6097 110.011 38.9253ZM38.785 85.4504C39.9821 81.6232 41.4186 77.5567 43.0945 73.4902C45.728 78.3939 48.4813 83.178 51.3542 87.7228C46.9251 87.1248 42.7354 86.2876 38.785 85.4504Z" fill="#fff"/>
</svg>
