<svg width="60" height="60" viewBox="0 0 60 60" fill="none" xmlns="http://www.w3.org/2000/svg">
<rect x="2" y="2" width="56" height="56" stroke="#35333F" stroke-width="2.8"/>
<path fill-rule="evenodd" clip-rule="evenodd" d="M45.0674 48.5942C42.4738 48.5942 41.0073 47.2535 39.8801 45.4295L35.6069 47.89C37.1506 50.913 40.3057 53.2195 45.1891 53.2195C50.1835 53.2195 53.9025 50.6489 53.9025 45.9568C53.9025 41.6044 51.38 39.6686 46.9122 37.7697L45.5977 37.2116C43.3416 36.2432 42.3645 35.6103 42.3645 34.0468C42.3645 32.7818 43.3407 31.8134 44.8809 31.8134C46.3909 31.8134 47.3634 32.4446 48.265 34.0468L52.3596 31.441C50.6277 28.4215 48.2241 27.2683 44.8809 27.2683C40.1848 27.2683 37.1799 30.2438 37.1799 34.1525C37.1799 38.3956 39.7007 40.4028 43.4952 42.005L44.8098 42.564C47.208 43.6037 48.6381 44.2366 48.6381 46.0237C48.6381 47.515 47.2462 48.5942 45.0674 48.5942ZM24.6888 48.5617C22.8822 48.5617 22.1307 47.3336 21.3048 45.8811L17.0244 48.4494C18.2644 51.0504 20.7025 53.2098 24.9127 53.2098C29.5723 53.2098 32.7645 50.7537 32.7645 45.3573V27.5658H27.5063V45.2869C27.5063 47.8918 26.4165 48.5617 24.6888 48.5617Z" fill="#220AEA"/>
<path fill-rule="evenodd" clip-rule="evenodd" d="M45.0674 48.5942C42.4738 48.5942 41.0073 47.2535 39.8801 45.4295L35.6069 47.89C37.1506 50.913 40.3057 53.2195 45.1891 53.2195C50.1835 53.2195 53.9025 50.6489 53.9025 45.9568C53.9025 41.6044 51.38 39.6686 46.9122 37.7697L45.5977 37.2116C43.3416 36.2432 42.3645 35.6103 42.3645 34.0468C42.3645 32.7818 43.3407 31.8134 44.8809 31.8134C46.3909 31.8134 47.3634 32.4446 48.265 34.0468L52.3596 31.441C50.6277 28.4215 48.2241 27.2683 44.8809 27.2683C40.1848 27.2683 37.1799 30.2438 37.1799 34.1525C37.1799 38.3956 39.7007 40.4028 43.4952 42.005L44.8098 42.564C47.208 43.6037 48.6381 44.2366 48.6381 46.0237C48.6381 47.515 47.2462 48.5942 45.0674 48.5942ZM24.6888 48.5617C22.8822 48.5617 22.1307 47.3336 21.3048 45.8811L17.0244 48.4494C18.2644 51.0504 20.7025 53.2098 24.9127 53.2098C29.5723 53.2098 32.7645 50.7537 32.7645 45.3573V27.5658H27.5063V45.2869C27.5063 47.8918 26.4165 48.5617 24.6888 48.5617Z" fill="#35333F"/>
</svg>
