<svg width="63" height="56" viewBox="0 0 63 56" fill="none" xmlns="http://www.w3.org/2000/svg">
<path fill-rule="evenodd" clip-rule="evenodd" d="M15.7073 55.1388C10.6421 52.2245 11.7677 43.5329 12.9956 38.6246C8.13501 37.1931 0 33.8698 0 27.9901C0 22.1616 8.13501 18.7872 12.9956 17.3556C11.7677 12.4985 10.6421 3.80682 15.7073 0.841431C20.7726 -2.07285 27.782 3.24442 31.4147 6.7211C35.0984 3.29553 42.0568 -2.07285 47.1219 0.841431C52.1871 3.75571 51.0615 12.4474 49.8336 17.3556C54.6942 18.7872 62.8292 22.1616 62.8292 27.9901C62.8292 33.8187 54.6942 37.1931 49.8336 38.6246C51.0104 43.5329 52.1871 52.2245 47.1219 55.1388C43.7963 57.0817 38.9869 55.5478 34.024 51.5088C33.1542 50.8441 32.2844 50.0772 31.4147 49.2592C27.782 52.7358 20.7726 58.1042 15.7073 55.1388ZM17.1912 3.3978C20.6703 1.40381 26.7588 6.36319 29.3682 8.86844C27.5774 10.7602 25.8378 12.9586 24.0983 15.3105C21.1307 15.6172 18.3679 16.0774 15.8097 16.6398C14.9911 13.1631 13.6608 5.4429 17.1912 3.3978ZM34.8093 14.8839L34.9449 15.0549C32.5914 14.9526 30.2379 14.9526 27.9355 15.0549C29.0612 13.5722 30.2379 12.1917 31.4147 10.9135C32.5953 12.0934 33.6814 13.4622 34.8093 14.8839ZM40.88 37.4998C42.7731 37.2442 44.5638 36.9374 46.2522 36.5284C45.7406 34.8923 45.1266 33.154 44.4103 31.4156C43.3358 33.5119 42.1591 35.557 40.88 37.4998ZM33.4612 47.1629C35.252 45.2712 37.0426 43.0727 38.7311 40.6697C41.6986 40.4141 44.4614 39.9539 47.0197 39.3404C47.8383 42.8682 49.1685 50.5885 45.6382 52.6336C43.4893 53.8606 39.8567 52.4802 35.8147 49.2592C35.0472 48.5945 34.2798 47.9298 33.4612 47.1629ZM16.7817 27.9901C15.5538 30.6999 14.5306 33.3074 13.7632 35.8126C10.2839 34.8412 2.91638 32.0803 2.91638 27.9901C2.91638 23.951 10.2839 21.1902 13.7632 20.1676C14.5306 22.6729 15.5538 25.2804 16.7817 27.9901ZM18.4191 24.5646C19.4935 22.4684 20.6703 20.4744 21.9493 18.5315C20.0563 18.7872 18.2655 19.0939 16.5771 19.503C17.0887 21.0879 17.7028 22.8262 18.4191 24.5646ZM46.0475 27.9901C47.2754 25.2804 48.2987 22.6729 49.0662 20.1676C52.5453 21.1902 59.9128 23.951 59.9128 27.9901C59.9128 32.0292 52.4941 34.7901 49.0662 35.8126C48.2987 33.3074 47.2754 30.6999 46.0475 27.9901ZM29.368 47.1629C27.5774 45.2712 25.8378 43.0727 24.0981 40.6697C21.1819 40.4141 18.3678 39.9539 15.8097 39.3404C14.9398 42.8171 13.6608 50.5885 17.191 52.6336C20.7214 54.6787 26.7587 49.6682 29.368 47.1629ZM34.9449 40.9765C33.7682 42.4592 32.5914 43.8396 31.4147 45.1178C30.2379 43.8396 29.0612 42.4592 27.9355 40.9765C30.2891 41.0788 32.5914 41.0788 34.9449 40.9765ZM37.1449 37.9088C39.2938 34.7901 41.1869 31.4668 42.8241 28.0412C41.1869 24.6157 39.2427 21.2924 37.0938 18.1736C33.3076 17.918 29.4703 17.918 25.6331 18.1736C23.4841 21.2924 21.5911 24.6668 19.9027 28.0412C21.5399 31.4668 23.4841 34.7901 25.6331 37.9088C29.5215 38.1645 33.3588 38.1645 37.1449 37.9088ZM46.3033 19.4518C45.7917 21.0879 45.1266 22.8262 44.4103 24.5646C43.3358 22.5195 42.1591 20.4744 40.9312 18.4804C42.8242 18.7361 44.615 19.0428 46.3033 19.4518ZM47.0197 16.6398C47.8894 13.1631 49.1685 5.39175 45.6382 3.3978C42.1079 1.35269 36.0194 6.36319 33.4612 8.81729C35.252 10.7601 37.0426 12.9075 38.7311 15.3105C41.6986 15.6172 44.5126 16.0774 47.0197 16.6398ZM16.5771 36.5284C17.0887 34.8923 17.7028 33.154 18.4191 31.4156C19.5447 33.5119 20.7214 35.557 21.9493 37.4998C20.0563 37.2442 18.2655 36.8863 16.5771 36.5284Z" fill="#fff"/>
<path fill-rule="evenodd" clip-rule="evenodd" d="M15.7073 55.1388C10.6421 52.2245 11.7677 43.5329 12.9956 38.6246C8.13501 37.1931 0 33.8698 0 27.9901C0 22.1616 8.13501 18.7872 12.9956 17.3556C11.7677 12.4985 10.6421 3.80682 15.7073 0.841431C20.7726 -2.07285 27.782 3.24442 31.4147 6.7211C35.0984 3.29553 42.0568 -2.07285 47.1219 0.841431C52.1871 3.75571 51.0615 12.4474 49.8336 17.3556C54.6942 18.7872 62.8292 22.1616 62.8292 27.9901C62.8292 33.8187 54.6942 37.1931 49.8336 38.6246C51.0104 43.5329 52.1871 52.2245 47.1219 55.1388C43.7963 57.0817 38.9869 55.5478 34.024 51.5088C33.1542 50.8441 32.2844 50.0772 31.4147 49.2592C27.782 52.7358 20.7726 58.1042 15.7073 55.1388ZM17.1912 3.3978C20.6703 1.40381 26.7588 6.36319 29.3682 8.86844C27.5774 10.7602 25.8378 12.9586 24.0983 15.3105C21.1307 15.6172 18.3679 16.0774 15.8097 16.6398C14.9911 13.1631 13.6608 5.4429 17.1912 3.3978ZM34.8093 14.8839L34.9449 15.0549C32.5914 14.9526 30.2379 14.9526 27.9355 15.0549C29.0612 13.5722 30.2379 12.1917 31.4147 10.9135C32.5953 12.0934 33.6814 13.4622 34.8093 14.8839ZM40.88 37.4998C42.7731 37.2442 44.5638 36.9374 46.2522 36.5284C45.7406 34.8923 45.1266 33.154 44.4103 31.4156C43.3358 33.5119 42.1591 35.557 40.88 37.4998ZM33.4612 47.1629C35.252 45.2712 37.0426 43.0727 38.7311 40.6697C41.6986 40.4141 44.4614 39.9539 47.0197 39.3404C47.8383 42.8682 49.1685 50.5885 45.6382 52.6336C43.4893 53.8606 39.8567 52.4802 35.8147 49.2592C35.0472 48.5945 34.2798 47.9298 33.4612 47.1629ZM16.7817 27.9901C15.5538 30.6999 14.5306 33.3074 13.7632 35.8126C10.2839 34.8412 2.91638 32.0803 2.91638 27.9901C2.91638 23.951 10.2839 21.1902 13.7632 20.1676C14.5306 22.6729 15.5538 25.2804 16.7817 27.9901ZM18.4191 24.5646C19.4935 22.4684 20.6703 20.4744 21.9493 18.5315C20.0563 18.7872 18.2655 19.0939 16.5771 19.503C17.0887 21.0879 17.7028 22.8262 18.4191 24.5646ZM46.0475 27.9901C47.2754 25.2804 48.2987 22.6729 49.0662 20.1676C52.5453 21.1902 59.9128 23.951 59.9128 27.9901C59.9128 32.0292 52.4941 34.7901 49.0662 35.8126C48.2987 33.3074 47.2754 30.6999 46.0475 27.9901ZM29.368 47.1629C27.5774 45.2712 25.8378 43.0727 24.0981 40.6697C21.1819 40.4141 18.3678 39.9539 15.8097 39.3404C14.9398 42.8171 13.6608 50.5885 17.191 52.6336C20.7214 54.6787 26.7587 49.6682 29.368 47.1629ZM34.9449 40.9765C33.7682 42.4592 32.5914 43.8396 31.4147 45.1178C30.2379 43.8396 29.0612 42.4592 27.9355 40.9765C30.2891 41.0788 32.5914 41.0788 34.9449 40.9765ZM37.1449 37.9088C39.2938 34.7901 41.1869 31.4668 42.8241 28.0412C41.1869 24.6157 39.2427 21.2924 37.0938 18.1736C33.3076 17.918 29.4703 17.918 25.6331 18.1736C23.4841 21.2924 21.5911 24.6668 19.9027 28.0412C21.5399 31.4668 23.4841 34.7901 25.6331 37.9088C29.5215 38.1645 33.3588 38.1645 37.1449 37.9088ZM46.3033 19.4518C45.7917 21.0879 45.1266 22.8262 44.4103 24.5646C43.3358 22.5195 42.1591 20.4744 40.9312 18.4804C42.8242 18.7361 44.615 19.0428 46.3033 19.4518ZM47.0197 16.6398C47.8894 13.1631 49.1685 5.39175 45.6382 3.3978C42.1079 1.35269 36.0194 6.36319 33.4612 8.81729C35.252 10.7601 37.0426 12.9075 38.7311 15.3105C41.6986 15.6172 44.5126 16.0774 47.0197 16.6398ZM16.5771 36.5284C17.0887 34.8923 17.7028 33.154 18.4191 31.4156C19.5447 33.5119 20.7214 35.557 21.9493 37.4998C20.0563 37.2442 18.2655 36.8863 16.5771 36.5284Z" fill="#fff"/>
<path fill-rule="evenodd" clip-rule="evenodd" d="M31.7562 31.4146C33.4534 31.4146 34.8293 30.0387 34.8293 28.3415C34.8293 26.6442 33.4534 25.2683 31.7562 25.2683C30.0589 25.2683 28.683 26.6442 28.683 28.3415C28.683 30.0387 30.0589 31.4146 31.7562 31.4146Z" fill="#fff"/>
<path fill-rule="evenodd" clip-rule="evenodd" d="M31.7562 31.4146C33.4534 31.4146 34.8293 30.0387 34.8293 28.3415C34.8293 26.6442 33.4534 25.2683 31.7562 25.2683C30.0589 25.2683 28.683 26.6442 28.683 28.3415C28.683 30.0387 30.0589 31.4146 31.7562 31.4146Z" fill="#fff"/>
</svg>
