<svg width="86" height="15" viewBox="0 0 86 15" fill="none" xmlns="http://www.w3.org/2000/svg">
<g opacity="0.2">
<path fill-rule="evenodd" clip-rule="evenodd" d="M85.4449 3.57558L81.5434 7.46707L85.4449 11.3586L82.2161 14.4449L78.3146 10.5534L74.4131 14.4449L71.3188 11.3586L75.2203 7.46707L71.3188 3.57558L74.4131 0.355042L78.3146 4.24653L82.2161 0.355042L85.4449 3.57558ZM11.5423 14.4449L7.64078 10.5534L3.73927 14.4449L0.644981 11.3585L4.54648 7.46706L0.644981 3.57558L3.87381 0.489227L7.77531 4.38071L11.6768 0.489227L14.9056 3.70977L11.0041 7.60125L14.9056 11.4927L11.5423 14.4449ZM46.8792 14.4449L42.9777 10.5534L39.0762 14.4449L35.9819 11.3586L39.8834 7.46707L35.9819 3.57558L39.0762 0.355042L42.9777 4.24653L46.8792 0.355042L50.108 3.57558L46.2065 7.46707L50.108 11.3586L46.8792 14.4449Z" fill="#00DD3B"/>
<path fill-rule="evenodd" clip-rule="evenodd" d="M85.4449 3.57558L81.5434 7.46707L85.4449 11.3586L82.2161 14.4449L78.3146 10.5534L74.4131 14.4449L71.3188 11.3586L75.2203 7.46707L71.3188 3.57558L74.4131 0.355042L78.3146 4.24653L82.2161 0.355042L85.4449 3.57558ZM11.5423 14.4449L7.64078 10.5534L3.73927 14.4449L0.644981 11.3585L4.54648 7.46706L0.644981 3.57558L3.87381 0.489227L7.77531 4.38071L11.6768 0.489227L14.9056 3.70977L11.0041 7.60125L14.9056 11.4927L11.5423 14.4449ZM46.8792 14.4449L42.9777 10.5534L39.0762 14.4449L35.9819 11.3586L39.8834 7.46707L35.9819 3.57558L39.0762 0.355042L42.9777 4.24653L46.8792 0.355042L50.108 3.57558L46.2065 7.46707L50.108 11.3586L46.8792 14.4449Z" fill="#35333F"/>
</g>
</svg>
