<svg id="Layer_1" data-name="Layer 1" xmlns="http://www.w3.org/2000/svg" xmlns:xlink="http://www.w3.org/1999/xlink" viewBox="0 0 569 175"><defs><style>.cls-1{fill:url(#linear-gradient);}.cls-2{fill:url(#linear-gradient-2);}.cls-3{fill:#1b1464;}.cls-4{fill:url(#linear-gradient-3);}</style><linearGradient id="linear-gradient" x1="1.53" y1="120.23" x2="142.19" y2="120.23" gradientUnits="userSpaceOnUse"><stop offset="0" stop-color="#2789ff"/><stop offset="1" stop-color="#00ffb1"/></linearGradient><linearGradient id="linear-gradient-2" x1="1.53" y1="87.75" x2="142.19" y2="87.75" gradientUnits="userSpaceOnUse"><stop offset="0.2" stop-color="#2789ff"/><stop offset="1" stop-color="#9500de"/></linearGradient><linearGradient id="linear-gradient-3" x1="1.53" y1="53.77" x2="142.19" y2="53.77" gradientUnits="userSpaceOnUse"><stop offset="0.13" stop-color="#ffda00"/><stop offset="1" stop-color="#f07"/></linearGradient></defs><path class="cls-1" d="M67.41,171.41,4.47,126.29a7,7,0,0,1,0-11.44L68.1,69.06a7,7,0,0,1,8.22,0l62.93,45.12a7,7,0,0,1,0,11.43L75.62,171.4A7,7,0,0,1,67.41,171.41Z"/><path class="cls-2" d="M67.41,138.92,4.47,93.8a7,7,0,0,1,0-11.44L68.1,36.58a7,7,0,0,1,8.22,0l62.93,45.12a7,7,0,0,1,0,11.44L75.62,138.92A7,7,0,0,1,67.41,138.92Z"/><path class="cls-3" d="M67.8,69.28h0l-.1.07h-.11l-.07,0h-.13l-.19.13h0L55.92,77.83l2.61,3.63L70.71,72.7a2.54,2.54,0,0,1,1.5-.49V67.74a7.05,7.05,0,0,0-4.11,1.32Z"/><path class="cls-3" d="M90.35,79.11l-14-10h-.18l-.06,0h0l0,0h0a6.55,6.55,0,0,0-1.6-.77L73,72.34a2.8,2.8,0,0,1,.69.35l14,10.06Z"/><path class="cls-3" d="M100.53,86.41h0l0,0h0l-.08-.06L94,81.72l-2.6,3.64,15.76,11.3L109.75,93l-9.2-6.6h0Z"/><polygon class="cls-3" points="32.9 94.39 19.12 104.3 22.96 107.06 35.52 98.02 32.9 94.39"/><path class="cls-3" d="M41,88.56l-.07,0h0l-4.36,3.13,2.62,3.64L54.9,84.08l-2.62-3.64L41,88.55Z"/><polygon class="cls-3" points="113.39 95.63 110.78 99.27 120.77 106.43 124.6 103.67 113.39 95.63"/><path class="cls-4" d="M67.41,104.94,4.47,59.82a7,7,0,0,1,0-11.43L68.1,2.6a7,7,0,0,1,8.22,0l62.93,45.12a7,7,0,0,1,0,11.44L75.62,104.94A7,7,0,0,1,67.41,104.94Z"/><path class="cls-3" d="M75.62,104.94l47.95-34.5L76.32,36.57a7,7,0,0,0-8.22,0L20.16,71.07l47.25,33.87A7,7,0,0,0,75.62,104.94Z"/><path class="cls-3" d="M194.25,127.38l6.22-65.12a3.45,3.45,0,0,1,3.83-3.52h5.5a4.11,4.11,0,0,1,4.25,2.9l22.6,54,22.5-54a4.24,4.24,0,0,1,4.36-2.9h5.39c2.38,0,3.73,1.14,3.94,3.52L279,127.38c.2,2.59-1.14,3.94-3.63,3.94h-3.42c-2.39,0-3.84-1.14-4.05-3.53L263.4,75.43l-21.56,52.05a4.28,4.28,0,0,1-4.36,2.9h-1.76a4.14,4.14,0,0,1-4.25-2.9l-21.57-52-4.56,52.36c-.21,2.39-1.55,3.53-3.94,3.53H198C195.49,131.32,194,130,194.25,127.38Z"/><path class="cls-3" d="M296,62.89a7.06,7.06,0,0,1,7.15-7.26,7.16,7.16,0,1,1,0,14.31A7,7,0,0,1,296,62.89Zm1.87,64.69V83.1c0-2.38,1.45-3.73,3.83-3.73h3.11a3.39,3.39,0,0,1,3.74,3.73v44.48a3.39,3.39,0,0,1-3.74,3.74h-3.11A3.46,3.46,0,0,1,297.82,127.58Z"/><path class="cls-3" d="M335.34,114.83V87.67H329A1.94,1.94,0,0,1,327,85.49v-4A1.86,1.86,0,0,1,329,79.37h6.53l1.87-11.92a3.14,3.14,0,0,1,3.32-3h2.17A2.92,2.92,0,0,1,346,67.66V79.37h14.21a1.86,1.86,0,0,1,2.07,2.08v4a1.94,1.94,0,0,1-2.07,2.18H346v27.78c0,5.6,2.7,7.78,6,7.78s6.12-1.87,6.12-5.6c0-3.18.88-4.35,3.88-4.35h2.54a2.11,2.11,0,0,1,2.39,1.86,19.15,19.15,0,0,1,.41,3.84c0,7.77-5.6,13.48-15.55,13.48C343.54,132.46,335.34,128.21,335.34,114.83Z"/><path class="cls-3" d="M376.92,105.29a27.21,27.21,0,0,1,27.37-27.06c15.24,0,27.58,12.24,27.58,27.06a27.48,27.48,0,0,1-54.95,0Zm44.27.11c0-9.85-7.47-17.84-16.9-17.84-9.23,0-16.8,8-16.8,17.84s7.57,17.73,16.8,17.73C413.72,123.13,421.19,115.25,421.19,105.4Z"/><path class="cls-3" d="M444.3,122.4c-1.24-2.38,0-4,2.49-4.67l2.18-.62c2.07-.52,3.32.42,4.66,2.18a12.27,12.27,0,0,0,9.65,4.25c5,0,8.71-2.9,8.71-6.84,0-3.32-2.8-5.08-6.43-6.33L458.61,108c-8-2.39-13-6.85-13-14.21,0-8.91,7.05-15.55,17.42-15.55,6.32,0,12.44,2.18,15.86,8.5,1.35,2.39.11,4.25-2.38,4.77l-2,.42c-2.18.62-3.42-.31-4.87-2.18a7.89,7.89,0,0,0-6.33-2.7c-4.56,0-7.46,2.8-7.46,6.43,0,3.32,3,5.08,6,6l7.46,2.48c10,3.11,12.65,9.23,12.65,14.83,0,10-8.71,15.66-18.87,15.66C455.19,132.46,447.83,129,444.3,122.4Z"/><path class="cls-3" d="M498.42,62.89a7.06,7.06,0,0,1,7.15-7.26,7.16,7.16,0,1,1,0,14.31A7,7,0,0,1,498.42,62.89Zm1.86,64.69V83.1c0-2.38,1.46-3.73,3.84-3.73h3.11A3.38,3.38,0,0,1,511,83.1v44.48a3.39,3.39,0,0,1-3.73,3.74h-3.11C501.74,131.32,500.28,130,500.28,127.58Z"/><path class="cls-3" d="M529.73,122.4c-1.25-2.38,0-4,2.49-4.67l2.17-.62c2.08-.52,3.32.42,4.67,2.18a12.25,12.25,0,0,0,9.64,4.25c5,0,8.71-2.9,8.71-6.84,0-3.32-2.8-5.08-6.43-6.33L544,108c-8-2.39-13-6.85-13-14.21,0-8.91,7-15.55,17.41-15.55,6.33,0,12.45,2.18,15.87,8.5,1.35,2.39.1,4.25-2.39,4.77l-2,.42c-2.17.62-3.42-.31-4.87-2.18a7.86,7.86,0,0,0-6.32-2.7c-4.57,0-7.47,2.8-7.47,6.43,0,3.32,3,5.08,6,6l7.47,2.48c9.95,3.11,12.65,9.23,12.65,14.83,0,10-8.71,15.66-18.87,15.66C540.61,132.46,533.25,129,529.73,122.4Z"/></svg>