<svg xmlns="http://www.w3.org/2000/svg" width="32" height="40" viewBox="0 0 32 40">
    <path fill="#fff" d="M3.639 8.736C11.592 6.253 14.637 4.745 16 3.991c1.363.754 4.408 2.306 12.361 4.745 0 .887.5 27.716-12.361 27.716S3.639 9.623 3.639 8.736zM16 40c16.633.044 15.997-32.727 15.997-33.836C21.68 2.927 17.772.976 16 0 14.228.976 10.32 2.927.003 6.164.003 7.273-.633 40.044 16 40z"/>

    <g class="faces">
        <path fill="#fff" d="M16.1 28.714c-1.467 0-2.667-1.187-2.667-2.637v-.352h-3.11v.088c0 2.066 1.11 4 2.933 4.967 4.133 2.154 8.622-.879 8.622-4.835v-.22h-3.111v.22c.044 1.45-1.067 2.681-2.534 2.725-.044.044-.089.044-.133.044zM24.989 16.45l-7.556.045v-2.638l7.556-.044zM14.411 13.725c-.578-1.494-2.089-2.417-3.733-2.417a4.038 4.038 0 0 0-4.045 4.132c.045 2.065 1.823 3.78 3.911 3.868 2.8.088 4.978-2.682 3.867-5.583zm-3.778 2.813a1.283 1.283 0 0 1-1.289-1.274c0-.791.712-1.407 1.512-1.275.533.088.933.527 1.022 1.011a1.256 1.256 0 0 1-1.245 1.538z"/>

        <path fill="none" d="M16.1 29.077c-1.467 0-2.667-1.187-2.667-2.637v-.352h-3.11v.22c0 3.077 2.666 5.538 5.777 5.538s5.778-2.461 5.778-5.538v-.22h-3.111v.22c.044 1.45-1.067 2.681-2.534 2.725-.044.044-.089.044-.133.044zM14.767 16.901l-8-.044V14.22l8 .044zM25.433 16.857l-8 .044v-2.637l8-.044z"/>

        <path fill="none" d="M7.767 12.088l-1.911 1.89 4.8 4.747 4.8-4.747-1.912-1.89-2.888 2.813zM12.256 29.363l1.91 1.934 1.823-1.802 1.822 1.802 1.911-1.934-1.822-1.759 1.822-1.802-1.955-1.89-1.778 1.758-1.822-1.758-1.911 1.89 1.822 1.802zM18.7 12.088l-1.911 1.89 4.8 4.747 4.8-4.747-1.911-1.89-2.89 2.813z"/>

        <path fill="none" d="M12.1 26.165h8v2.637h-8v-2.637zM21.211 11.308c-2.222 0-4.044 1.802-4.044 4 0 2.197 1.822 4 4.044 4 2.222 0 4.045-1.803 4.045-4 0-2.242-1.823-4-4.045-4zm0 5.23a1.283 1.283 0 0 1-1.289-1.274c0-.704.578-1.275 1.29-1.275.71 0 1.288.571 1.288 1.275 0 .703-.578 1.274-1.289 1.274zM10.678 11.308c-.045 0-.045 0 0 0-2.222 0-4.045 1.802-4.045 4 0 2.197 1.823 4 4.045 4s4.044-1.803 4.044-4c0-2.242-1.822-4-4.044-4zm-.045 5.23a1.283 1.283 0 0 1-1.289-1.274c0-.704.578-1.275 1.29-1.275.71 0 1.288.571 1.288 1.275 0 .703-.578 1.274-1.289 1.274z"/>

        <path fill="none" d="M13.767 24.264l-1.911 1.89 6.31 6.242 1.912-1.89zM18.433 18.725l-1.955-1.89 4.844-4.747 4.8 4.747-1.91 1.89-2.89-2.857zM7.5 18.725l-1.911-1.89 4.8-4.747 4.8 4.747-1.956 1.89-2.844-2.857z"/>

        <path fill="none" d="M15.889 27.297c1.555.044 2.8 1.274 2.8 2.813v.176h2.8v-.264c0-3.033-2.489-5.495-5.556-5.495-3.066 0-5.555 2.462-5.555 5.495v.22h2.666v-.22c.045-1.495 1.29-2.725 2.845-2.725zM17.133 17.626l1.911 1.89 1.823-1.758 1.822 1.758 1.911-1.89-1.778-1.802 1.778-1.758-1.911-1.934-1.822 1.802-1.823-1.802-1.91 1.934 1.822 1.758zM7.222 17.626l1.956 1.89 1.778-1.758 1.822 1.758 1.91-1.89-1.777-1.802 1.778-1.758-1.911-1.934-1.822 1.802-1.778-1.802-1.956 1.934 1.822 1.758z"/>

        <path fill="none" d="M16.167 29.593c-1.467 0-2.667-1.186-2.667-2.637v-.352h-3.111v.22c0 3.077 2.667 5.539 5.778 5.539 3.11 0 5.777-2.462 5.777-5.539v-.22h-3.11v.22c.044 1.45-1.067 2.681-2.534 2.725-.044.044-.089.044-.133.044zM17.633 19l1.911 1.934 4.845-4.747-4.845-4.791-1.91 1.934 2.888 2.857zM8.211 19l1.956 1.934 4.8-4.747-4.8-4.791L8.21 13.33l2.889 2.857z"/>

        <path fill="none" d="M16.1 28.714c-1.467 0-2.667-1.187-2.667-2.637v-.352h-3.11v.22c0 3.077 2.666 5.539 5.777 5.539s5.778-2.462 5.778-5.539v-.22h-3.111v.22c.044 1.45-1.067 2.681-2.534 2.725-.044.044-.089.044-.133.044zM21.211 11.308c-2.222 0-4.044 1.802-4.044 4 0 2.197 1.822 4 4.044 4 2.222 0 4.045-1.803 4.045-4 0-2.242-1.823-4-4.045-4zm0 5.23a1.283 1.283 0 0 1-1.289-1.274c0-.704.578-1.275 1.29-1.275.71 0 1.288.571 1.288 1.275 0 .703-.578 1.274-1.289 1.274zM10.678 11.308c-.045 0-.045 0 0 0-2.222 0-4.045 1.802-4.045 4 0 2.197 1.823 4 4.045 4s4.044-1.803 4.044-4c0-2.242-1.822-4-4.044-4zm-.045 5.23a1.283 1.283 0 0 1-1.289-1.274c0-.704.578-1.275 1.29-1.275.71 0 1.288.571 1.288 1.275 0 .703-.578 1.274-1.289 1.274z"/>

        <path fill="none" d="M16.211 28.714c-1.467 0-2.667-1.187-2.667-2.637v-.352h-3.11v.22c0 3.077 2.666 5.539 5.777 5.539s5.778-2.462 5.778-5.539v-.22h-3.111v.22c.044 1.45-1.067 2.681-2.534 2.725-.044.044-.088.044-.133.044zM22.033 11.176l2.356 1.362-3.911 6.682-2.356-1.363zM10.078 11.176l-2.356 1.362 3.911 6.682 2.356-1.363z"/>

        <path fill="none" d="M13.933 25.022l-1.91 1.89 6.31 6.242 1.911-1.89zM14.067 19l-1.911 1.89-4.8-4.747 4.8-4.747 1.955 1.934-2.889 2.857zM23.444 19l-1.91 1.89-4.8-4.747 4.8-4.747 1.955 1.89-2.889 2.9z"/>

        <path fill="none" d="M23.489 19l-1.956 1.89-4.8-4.747 4.8-4.747 1.956 1.89-2.889 2.9zM16.022 24.363c-2.222 0-4.044 1.802-4.044 4 0 2.197 1.822 4 4.044 3.956 2.222 0 4-1.803 4-4 .045-2.198-1.778-3.956-4-3.956zm0 5.23c0 .044 0 .044 0 0a1.283 1.283 0 0 1-1.289-1.274c0-.704.578-1.275 1.29-1.275.71 0 1.288.571 1.288 1.275 0 .703-.578 1.274-1.289 1.274zM14.067 19l-1.911 1.89-4.8-4.747 4.8-4.747 1.955 1.934-2.889 2.857z"/>

        <path fill="none" d="M12.367 29.242l1.91 1.89 1.823-1.758 1.778 1.758 1.955-1.89-1.822-1.758 1.822-1.759-1.955-1.934-1.778 1.802-1.822-1.802-1.911 1.89 1.822 1.803zM21.211 11.264c-2.222 0-4.044 1.802-4.044 4s1.822 4 4.044 4c2.222 0 4.045-1.802 4.045-4s-1.823-4-4.045-4zm0 5.274a1.283 1.283 0 0 1-1.289-1.274c0-.704.578-1.275 1.29-1.275.71 0 1.288.571 1.288 1.275 0 .703-.578 1.274-1.289 1.274zM10.633 11.264c-2.222 0-4.044 1.802-4.044 4s1.822 4 4.044 4c2.223 0 4.045-1.802 4.045-4 .044-2.198-1.778-4-4.045-4zm0 5.274a1.283 1.283 0 0 1-1.289-1.274c0-.704.578-1.275 1.29-1.275.71 0 1.288.571 1.288 1.275 0 .703-.578 1.274-1.289 1.274z"/>
    </g>
</svg>
