<?xml version="1.0" encoding="utf-8"?><svg xmlns="http://www.w3.org/2000/svg" xmlns:xlink="http://www.w3.org/1999/xlink"><symbol id="logo" viewBox="-281 400.9 31.2 40" xmlns="http://www.w3.org/2000/svg"><style>.ast0{fill:#fff}</style><path class="ast0" d="M-277.5 409.6c7.8-2.5 10.7-4 12.1-4.7 1.3.8 4.3 2.3 12 4.7 0 .9.5 27.7-12 27.7s-12.1-26.8-12.1-27.7zm12.1 31.2c16.2 0 15.6-32.7 15.6-33.8-10.1-3.2-13.9-5.2-15.6-6.2-1.7 1-5.5 2.9-15.6 6.2 0 1.2-.6 33.9 15.6 33.8z"/><path class="ast0" d="M-264.8 430.3c-1.5 0-2.7-1.2-2.7-2.7v-.4h-3.1v.1c0 2.1 1.1 4 2.9 5 4.1 2.2 8.6-.9 8.6-4.9v-.2h-3.1v.2c0 1.5-1.1 2.7-2.5 2.7 0 .2 0 .2-.1.2zm8.9-12.4h-7.5v-2.7h7.5v2.7zm-10.6-2.7c-.6-1.5-2.1-2.4-3.7-2.4-2.3 0-4.1 1.9-4 4.2 0 2.1 1.8 3.8 3.9 3.9 2.8 0 4.9-2.8 3.8-5.7zm-3.7 2.8c-.7 0-1.3-.6-1.3-1.3 0-.8.7-1.4 1.5-1.3.5.1.9.5 1 1 .2.7-.3 1.4-.9 1.5-.1.1-.2.1-.3.1z"/></symbol></svg>