<?xml version="1.0" encoding="utf-8"?><svg xmlns="http://www.w3.org/2000/svg" xmlns:xlink="http://www.w3.org/1999/xlink"><symbol viewBox="0 0 16 20" id="arrow-d" xmlns="http://www.w3.org/2000/svg"><path fill-rule="evenodd" d="M16 11.916l-1.41-1.425L9 16.13V0H7v16.13l-5.59-5.64L0 11.917 8 20z"/></symbol><symbol viewBox="0 0 20 16" id="arrow-r" xmlns="http://www.w3.org/2000/svg"><path fill-rule="evenodd" d="M11.916 0L10.49 1.41 16.13 7H0v2h16.13l-5.64 5.59L11.917 16 20 8z"/></symbol><symbol viewBox="0 0 22 19" id="error" xmlns="http://www.w3.org/2000/svg"><path fill="#F8E71C" fill-rule="evenodd" d="M0 19h22L11 0 0 19zm12-3h-2v-2h2v2zm0-4h-2V8h2v4z"/></symbol><symbol viewBox="0 0 18 20" id="socials" xmlns="http://www.w3.org/2000/svg"><path fill-rule="evenodd" d="M15 14.08c-.76 0-1.44.3-1.96.77L5.91 10.7c.05-.23.09-.46.09-.7 0-.24-.04-.47-.09-.7l7.05-4.11c.54.5 1.25.81 2.04.81 1.66 0 3-1.34 3-3s-1.34-3-3-3-3 1.34-3 3c0 .24.04.47.09.7L5.04 7.81C4.5 7.31 3.79 7 3 7c-1.66 0-3 1.34-3 3s1.34 3 3 3c.79 0 1.5-.31 2.04-.81l7.12 4.16c-.05.21-.08.43-.08.65 0 1.61 1.31 2.92 2.92 2.92 1.61 0 2.92-1.31 2.92-2.92 0-1.61-1.31-2.92-2.92-2.92z"/></symbol><symbol viewBox="0 0 8 16" id="socials_fb" xmlns="http://www.w3.org/2000/svg"><path d="M1.73 3.099v2.203H0v2.693h1.73V16h3.55V7.995h2.384s.223-1.291.331-2.703h-2.7V3.45c0-.275.387-.646.77-.646H8V0H5.369c-3.728 0-3.64 2.696-3.64 3.099z"/></symbol><symbol viewBox="0 0 21 20" id="socials_gh" xmlns="http://www.w3.org/2000/svg"><path fill-rule="evenodd" d="M7.125 16.125c0 .111-.076.174-.23.187-.152.014-.228-.034-.228-.145 0-.111.07-.167.208-.167a.34.34 0 01.187.042c.042.027.063.055.063.083zm-1.775-.004c.028-.11.111-.146.25-.104.139.042.201.097.187.167a.195.195 0 01-.104.146.177.177 0 01-.166 0 .556.556 0 01-.146-.105c-.042-.041-.049-.076-.021-.104zM7.523 16c.139 0 .215.042.229.125.014.083-.049.153-.188.208a.462.462 0 01-.145-.02c-.042-.014-.07-.063-.084-.146-.014-.084.049-.14.188-.167zm2.685-16c1.89 0 3.64.441 5.25 1.323 1.611.882 2.875 2.082 3.792 3.598.944 1.571 1.417 3.294 1.417 5.169 0 2.288-.646 4.335-1.938 6.14-1.291 1.806-2.979 3.053-5.062 3.742-.223.056-.396.028-.521-.082a.529.529 0 01-.188-.414v-3.473c0-.882-.236-1.516-.708-1.902 1.028-.11 1.792-.248 2.292-.414.777-.276 1.375-.69 1.791-1.24.473-.717.709-1.696.709-2.936 0-.524-.098-.979-.292-1.365-.139-.276-.403-.62-.792-1.034.111-.275.18-.606.209-.992a4.63 4.63 0 00-.292-1.82c-.278-.082-.667-.027-1.167.166-.333.138-.722.33-1.166.579L13 5.417a9.51 9.51 0 00-2.646-.372c-.903 0-1.77.124-2.604.372l-.542-.372A9.4 9.4 0 006 4.465c-.5-.192-.875-.247-1.125-.165a3.807 3.807 0 00-.292 1.82c0 .386.056.703.167.951-.333.413-.576.793-.73 1.137-.152.345-.228.779-.228 1.303 0 1.24.222 2.205.666 2.894.39.58.973 1.006 1.75 1.282.5.166 1.25.303 2.25.414-.36.33-.583.8-.666 1.406-.473.22-.93.303-1.375.248-.723-.055-1.278-.428-1.667-1.117a2.158 2.158 0 00-.667-.744 4.316 4.316 0 00-.625-.29l-.291-.04c-.306 0-.466.047-.48.144-.013.096.05.2.188.31l.208.165c.195.11.39.29.584.538.166.193.305.413.416.661l.167.331c.139.414.403.73.792.951.333.193.736.317 1.208.373.333.027.68.013 1.042-.042l.458-.041.042 2.522a.529.529 0 01-.188.414c-.125.11-.298.138-.52.082-2.112-.689-3.82-1.936-5.126-3.742C.653 14.425 0 12.378 0 10.09c0-1.875.444-3.584 1.333-5.128A9.647 9.647 0 015 1.323C6.556.441 8.292 0 10.208 0zM4.033 14.033c.056-.055.125-.041.209.042.083.083.097.153.041.208-.055.056-.125.042-.208-.041-.083-.084-.097-.153-.042-.209zm-.69.015c.055-.056.125-.063.208-.021.083.041.111.097.083.166-.028.07-.09.077-.187.021-.097-.055-.132-.11-.104-.166zm1.365 1.313c.028-.028.07-.035.125-.02a.31.31 0 01.146.083.31.31 0 01.083.145c.014.056.007.098-.02.125-.084.084-.18.07-.292-.041-.056-.056-.083-.111-.083-.167 0-.055.014-.097.041-.125zm0-.667c.056-.027.104-.034.146-.02.042.013.077.048.104.104.084.11.084.194 0 .25-.027.028-.062.028-.104 0a1.362 1.362 0 00-.146-.084c-.055-.138-.055-.222 0-.25z"/></symbol><symbol viewBox="0 0 16 13" id="socials_mail" xmlns="http://www.w3.org/2000/svg"><path fill-rule="evenodd" d="M14.4 0H1.6C.72 0 .008.72.008 1.6L0 11.2c0 .88.72 1.6 1.6 1.6h12.8c.88 0 1.6-.72 1.6-1.6V1.6c0-.88-.72-1.6-1.6-1.6zm0 3.2L8 7.2l-6.4-4V1.6l6.4 4 6.4-4v1.6z"/></symbol><symbol viewBox="0 0 19 19" id="socials_med" xmlns="http://www.w3.org/2000/svg"><path fill-rule="evenodd" d="M0 0h19v19H0V0zm15.777 4.496v-.213h-3.52L9.754 10.56 6.871 4.283H3.18v.213l1.187 1.441a.423.423 0 01.17.425v5.64a.682.682 0 01-.17.552L3.01 14.165v.212h3.817v-.212L5.47 12.554a.682.682 0 01-.17-.552V7.125l3.35 7.252h.382l2.842-7.252v5.81c0 .113-.028.198-.085.255l-1.018 1.018v.212h5.005v-.212l-1.018-.976a.407.407 0 01-.127-.297V5.768c0-.113.042-.212.127-.297l1.018-.975z"/></symbol><symbol viewBox="0 0 18 14" id="socials_tw" xmlns="http://www.w3.org/2000/svg"><path d="M17.235 1.656a7.06 7.06 0 01-2.03.557A3.55 3.55 0 0016.76.258a7.128 7.128 0 01-2.246.859A3.536 3.536 0 008.488 4.34 10.038 10.038 0 011.2.646a3.509 3.509 0 00-.478 1.777c0 1.227.624 2.31 1.572 2.943a3.536 3.536 0 01-1.601-.444v.044a3.54 3.54 0 002.835 3.467c-.296.08-.608.124-.931.124-.229 0-.45-.023-.666-.066a3.538 3.538 0 003.302 2.456 7.094 7.094 0 01-4.39 1.51c-.286 0-.567-.017-.844-.048A9.994 9.994 0 005.42 14c6.504 0 10.059-5.387 10.059-10.06l-.012-.457a7.06 7.06 0 001.768-1.827z"/></symbol></svg>