<?xml version="1.0" encoding="UTF-8" standalone="no"?>
<!-- Created with Inkscape (http://www.inkscape.org/) -->

<svg
   width="183.07785mm"
   height="92mm"
   viewBox="0 0 183.07785 92"
   version="1.1"
   id="svg1"
   sodipodi:docname="Koota logo.svg"
   inkscape:version="1.3.2 (091e20e, 2023-11-25, custom)"
   xmlns:inkscape="http://www.inkscape.org/namespaces/inkscape"
   xmlns:sodipodi="http://sodipodi.sourceforge.net/DTD/sodipodi-0.dtd"
   xmlns="http://www.w3.org/2000/svg"
   xmlns:svg="http://www.w3.org/2000/svg">
  <sodipodi:namedview
     id="namedview1"
     pagecolor="#ffffff"
     bordercolor="#000000"
     borderopacity="0.25"
     inkscape:showpageshadow="2"
     inkscape:pageopacity="0.0"
     inkscape:pagecheckerboard="0"
     inkscape:deskcolor="#d1d1d1"
     inkscape:document-units="mm"
     inkscape:zoom="1.1384419"
     inkscape:cx="680.75498"
     inkscape:cy="237.60545"
     inkscape:window-width="2560"
     inkscape:window-height="1351"
     inkscape:window-x="-9"
     inkscape:window-y="-9"
     inkscape:window-maximized="1"
     inkscape:current-layer="layer1">
    <inkscape:page
       x="0"
       y="0"
       width="183.07785"
       height="92"
       id="page2"
       margin="0"
       bleed="0"
       inkscape:export-filename="exports\Koota Logo - Color.svg"
       inkscape:export-xdpi="150"
       inkscape:export-ydpi="150" />
  </sodipodi:namedview>
  <defs
     id="defs1" />
  <g
     inkscape:label="Layer 1"
     inkscape:groupmode="layer"
     id="layer1"
     transform="translate(1.7905211,-12.74472)">
    <rect
       style="fill:#ca7184;fill-opacity:1;stroke-width:0.323386"
       id="rect12"
       width="183.07785"
       height="92"
       x="-1.7905207"
       y="-104.74472"
       transform="scale(1,-1)" />
    <path
       style="font-size:46.0532px;font-family:Sagittarius;-inkscape-font-specification:Sagittarius;fill:#f4e2d2;stroke-width:0.23986"
       d="m 52.739535,73.109726 c 0,2.44082 0.690798,3.085564 3.131617,3.085564 2.44082,0 3.131618,-0.644744 3.131618,-3.085564 V 46.675189 c 0,-2.440819 -0.690798,-3.085564 -3.131618,-3.085564 -2.440819,0 -3.177671,0.644745 -3.131617,3.085564 z M 65.173898,43.589625 c -2.02634,0 -2.578979,0.598691 -2.901351,2.578979 l -2.348713,14.092279 1.750021,12.940949 c 0.322373,2.348714 0.967118,2.993458 3.361884,2.993458 2.625032,0 3.592149,-0.782904 2.717139,-4.144788 l -3.59215,-14.046226 3.45399,-11.5133 c 0.552638,-1.934234 0,-2.901351 -2.026341,-2.901351 z m 4.282924,28.138505 c 0,2.993458 1.473702,4.513214 4.789533,4.513214 h 4.006628 c 3.31583,0 4.74348,-1.519756 4.74348,-4.513214 V 53.491063 c 0,-2.993458 -1.42765,-4.513214 -4.74348,-4.513214 h -4.006628 c -3.315831,0 -4.789533,1.519756 -4.789533,4.513214 z m 6.76982,-21.276578 c 0.690798,0 0.875011,0.414478 0.875011,1.473702 v 21.368685 c 0,1.059223 -0.184213,1.473702 -0.875011,1.473702 -0.690798,0 -0.875011,-0.414479 -0.875011,-1.473702 V 51.925254 c 0,-1.059224 0.184213,-1.473702 0.875011,-1.473702 z m 8.980416,21.276578 c 0,2.993458 1.473703,4.513214 4.789535,4.513214 h 4.00663 c 3.315827,0 4.743477,-1.519756 4.743477,-4.513214 V 53.491063 c 0,-2.993458 -1.42765,-4.513214 -4.743477,-4.513214 h -4.00663 c -3.315832,0 -4.789535,1.519756 -4.789535,4.513214 z m 6.769825,-21.276578 c 0.69079,0 0.87501,0.414478 0.87501,1.473702 v 21.368685 c 0,1.059223 -0.18422,1.473702 -0.87501,1.473702 -0.6908,0 -0.87501,-0.414479 -0.87501,-1.473702 V 51.925254 c 0,-1.059224 0.18421,-1.473702 0.87501,-1.473702 z m 12.756777,-4.927693 c -2.21056,0 -2.8553,0.598692 -2.8553,2.809245 v 0.644745 c 0,0.184213 -0.046,0.230266 -0.23027,0.230266 h -0.92106 c -0.46053,0 -0.6908,0.230266 -0.6908,0.690798 v 0.368426 c 0,0.460532 0.23027,0.690798 0.6908,0.690798 h 0.92106 c 0.18422,0 0.23027,0.04605 0.23027,0.230266 v 22.105536 c 0,2.30266 0.64474,2.901351 2.9474,2.901351 2.30266,0 2.94741,-0.598691 2.94741,-2.901351 V 51.188403 c 0,-0.184213 0.046,-0.230266 0.23027,-0.230266 h 1.5658 c 0.46054,0 0.6908,-0.230266 0.6908,-0.690798 v -0.368426 c 0,-0.460532 -0.23026,-0.690798 -0.6908,-0.690798 h -1.5658 c -0.18422,0 -0.23027,-0.04605 -0.23027,-0.230266 v -0.644745 c 0,-2.210553 -0.64475,-2.809245 -2.8553,-2.809245 z m 5.98689,10.684343 c 0,2.1645 0.5987,2.763192 2.80925,2.763192 2.21055,0 2.80924,-0.598692 2.80924,-2.763192 v -4.329001 c 0,-1.059224 0.18422,-1.427649 0.82896,-1.427649 0.64475,0 0.82896,0.368425 0.82896,1.427649 v 7.967203 c 0,0.230266 0,0.230266 -0.23027,0.322373 l -3.91452,1.335543 c -2.2566,0.782904 -3.17767,1.980287 -3.17767,4.282947 v 6.861927 c 0,2.44082 0.92107,3.546096 3.22373,3.546096 1.70396,0 2.99345,-0.690798 3.96057,-1.934234 0.41448,-0.552638 -0.0461,0.644745 0.64475,1.335543 0.41447,0.414479 1.19738,0.598691 2.39476,0.598691 2.34871,0 2.99346,-0.644744 2.99346,-2.901351 V 53.491063 c 0,-2.993458 -1.42765,-4.513214 -4.74348,-4.513214 h -3.6382 c -3.31583,0 -4.78954,1.519756 -4.78954,4.513214 z m 5.57244,15.934407 v -8.243523 c 0,-1.15133 0.046,-1.611862 0.82896,-1.888181 l 0.87501,-0.322373 v 10.223811 c 0,0.552638 -0.55264,1.243436 -1.10528,1.243436 -0.46053,0 -0.59869,-0.322372 -0.59869,-1.01317 z"
       id="text1"
       aria-label="Koota" />
    <path
       style="font-size:46.0532px;font-family:Sagittarius;-inkscape-font-specification:'Sagittarius, Normal';font-variant-ligatures:discretionary-ligatures;font-feature-settings:'ss12';fill:#f0b6b6;stroke-width:0.23986"
       d="m 41.722649,56.745067 h 0.04605 c 1.842128,0 2.394767,-0.552639 2.394767,-2.394767 v -7.644831 c 0,-1.842128 -0.552639,-2.394766 -2.394767,-2.394766 h -0.04605 c -1.842128,0 -2.394766,0.552638 -2.394766,2.394766 V 54.3503 c 0,1.842128 0.552638,2.394767 2.394766,2.394767 z m -6.861927,0 h 0.04605 c 1.842128,0 2.394767,-0.552639 2.394767,-2.394767 v -7.644831 c 0,-1.842128 -0.552639,-2.394766 -2.394767,-2.394766 h -0.04605 c -1.842128,0 -2.394766,0.552638 -2.394766,2.394766 V 54.3503 c 0,1.842128 0.552638,2.394767 2.394766,2.394767 z m 12.388311,7.829044 h 0.09211 c 0.828958,0 1.059224,-0.414479 1.059224,-1.28949 V 45.646246 c 0,-0.875011 -0.230266,-1.335543 -1.059224,-1.335543 h -0.09211 c -0.828958,0 -1.059224,0.460532 -1.059224,1.335543 v 17.638375 c 0,0.875011 0.230266,1.28949 1.059224,1.28949 z"
       id="text10"
       aria-label=";" />
    <path
       style="font-size:46.0532px;font-family:Sagittarius;-inkscape-font-specification:'Sagittarius, Normal';font-variant-ligatures:discretionary-ligatures;font-feature-settings:'ss13';fill:#f0b6b6;stroke-width:0.23986"
       d="m 129.06299,54.296441 c -0.82895,0 -1.05922,0.230266 -1.05922,1.059224 v 19.987089 c 0,0.828957 0.23027,1.059223 1.05922,1.059223 h 0.0921 c 0.82896,0 1.05922,-0.230266 1.05922,-1.059223 V 55.355665 c 0,-0.828958 -0.23026,-1.059224 -1.05922,-1.059224 z m 6.81591,-10.131704 c -0.82896,0 -1.05922,0.230266 -1.05922,1.059224 v 30.118793 c 0,0.828957 0.23026,1.059223 1.05922,1.059223 h 0.0921 c 0.82895,0 1.05922,-0.230266 1.05922,-1.059223 V 45.223961 c 0,-0.828958 -0.23027,-1.059224 -1.05922,-1.059224 z m 6.81591,10.131704 c -0.82896,0 -1.05923,0.230266 -1.05923,1.059224 v 9.855385 c 0,0.828957 0.23027,1.059223 1.05923,1.059223 h 0.0921 c 0.82896,0 1.05923,-0.230266 1.05923,-1.059223 v -9.855385 c 0,-0.828958 -0.23027,-1.059224 -1.05923,-1.059224 z"
       id="text10-6"
       aria-label="dft" />
  </g>
</svg>
