<svg width="844" height="844" viewBox="0 0 844 844" fill="none" xmlns="http://www.w3.org/2000/svg">
<rect x="1" width="841" height="842" rx="115" fill="#7A68E7" fill-opacity="0.1"/>
<g clip-path="url(#clip0_1_46)">
<path d="M422.637 359.088C388.411 359.088 360.666 386.777 360.666 420.933C360.666 455.089 388.411 482.777 422.637 482.777C456.863 482.777 484.608 455.089 484.608 420.933C484.608 386.777 456.863 359.088 422.637 359.088Z" fill="#7A68E7"/>
<path d="M744.954 421.494C744.954 372.941 699.901 330.357 628.167 302.333C629.125 296.022 629.992 289.779 630.609 283.65C637.684 213.885 620.84 163.532 583.204 141.842C541.095 117.577 481.617 135.189 421.477 183.218C361.337 135.189 301.859 117.577 259.75 141.842C222.114 163.532 205.27 213.885 212.346 283.65C212.962 289.779 213.806 296.044 214.788 302.378C208.808 304.657 202.942 307.072 197.305 309.601C133.262 338.332 98 378.113 98 421.494C98 470.047 143.054 512.63 214.788 540.654C213.806 546.966 212.962 553.208 212.346 559.337C205.27 629.102 222.114 679.455 259.75 701.146C272.69 708.468 287.352 712.212 302.225 711.991C337.875 711.991 379.505 693.262 421.477 659.77C463.427 693.262 505.08 711.991 540.776 711.991C555.648 712.209 570.309 708.465 583.25 701.146C620.886 679.455 637.73 629.102 630.654 559.337C630.038 553.208 629.171 546.966 628.212 540.654C699.946 512.676 745 470.024 745 421.494M540.502 161.755C550.064 161.525 559.517 163.837 567.89 168.454C594.023 183.514 605.754 224.366 600.048 280.528C599.66 284.356 599.204 288.229 598.656 292.126C568.828 283.158 538.285 276.763 507.362 273.01C488.616 248.135 467.771 224.909 445.054 203.587C480.727 176.063 514.209 161.755 540.479 161.755M528.223 483.011C516.679 503.011 504.11 522.403 490.564 541.11C467.603 543.465 444.536 544.636 421.454 544.619C398.38 544.635 375.321 543.464 352.368 541.11C338.858 522.403 326.326 503.01 314.823 483.011C303.28 463.066 292.79 442.532 283.395 421.494C292.79 400.455 303.28 379.922 314.823 359.977C326.308 340.057 338.801 320.734 352.254 302.082C375.249 299.669 398.355 298.468 421.477 298.482C444.551 298.468 467.61 299.64 490.564 301.991C504.062 320.672 516.601 340.025 528.131 359.977C539.665 379.926 550.155 400.46 559.559 421.494C550.155 442.528 539.665 463.061 528.131 483.011M575.262 460.227C582.505 479.944 588.452 500.113 593.064 520.604C573.05 526.833 552.647 531.742 531.988 535.3C539.84 523.483 547.448 511.187 554.812 498.413C562.093 485.79 568.917 473.054 575.353 460.318M378.135 573.988C392.332 574.853 406.824 575.355 421.5 575.355C436.175 575.355 450.76 574.853 464.979 573.988C451.497 590.107 436.973 605.329 421.5 619.556C406.06 605.332 391.574 590.109 378.135 573.988ZM310.989 535.255C290.323 531.713 269.913 526.819 249.89 520.604C254.484 500.146 260.407 480.007 267.624 460.318C273.969 473.054 280.77 485.79 288.165 498.413C295.56 511.035 303.206 523.475 310.989 535.3M267.624 382.647C260.433 363.03 254.525 342.968 249.936 322.588C269.909 316.367 290.264 311.443 310.875 307.847C303.069 319.626 295.423 331.838 288.051 344.575C280.679 357.311 273.946 369.888 267.51 382.647M464.842 268.977C450.646 268.111 436.153 267.61 421.363 267.61C406.695 267.61 392.24 268.066 377.998 268.977C391.437 252.855 405.923 237.633 421.363 223.409C436.842 237.629 451.366 252.852 464.842 268.977ZM554.766 344.575C547.371 331.785 539.726 319.482 531.829 307.664C552.542 311.222 572.998 316.139 593.064 322.383C588.46 342.839 582.536 362.976 575.33 382.67C568.985 369.933 562.161 357.197 554.789 344.597M242.998 280.551C237.223 224.411 249.023 183.537 275.133 168.476C283.509 163.866 292.959 161.555 302.521 161.778C328.791 161.778 362.273 176.086 397.946 203.609C375.214 224.947 354.353 248.188 335.592 273.078C304.678 276.849 274.138 283.221 244.299 292.126C243.774 288.229 243.294 284.379 242.929 280.551M209.949 337.648C213.464 336.129 217.047 334.61 220.699 333.091C227.878 363.327 237.613 392.9 249.799 421.494C237.59 450.143 227.847 479.778 220.676 510.078C162.522 486.269 128.812 453.277 128.812 421.494C128.812 391.373 158.482 360.82 209.949 337.648ZM275.133 674.511C249.023 659.451 237.223 618.576 242.998 562.436C243.363 558.608 243.842 554.758 244.367 550.839C274.195 559.804 304.738 566.199 335.661 569.955C354.412 594.839 375.258 618.079 397.969 639.423C348.237 677.769 302.795 690.414 275.201 674.511M600.025 562.436C605.731 618.599 594 659.451 567.867 674.511C540.296 690.46 494.832 677.769 445.122 639.423C467.826 618.079 488.664 594.838 507.408 569.955C538.331 566.201 568.874 559.806 598.701 550.839C599.249 554.758 599.706 558.608 600.094 562.436M622.415 510.033C615.224 479.75 605.474 450.131 593.27 421.494C605.468 392.84 615.211 363.206 622.392 332.909C680.432 356.718 714.234 389.71 714.234 421.494C714.234 453.277 680.524 486.269 622.369 510.078" fill="#7A68E7"/>
</g>
<path d="M21.5 199.5V110.5C21.5 86.8957 30.8768 64.2582 47.5675 47.5675C64.2582 30.8768 86.8957 21.5 110.5 21.5H199.5" stroke="#7A68E7" stroke-width="42.6667" stroke-linecap="round" stroke-linejoin="round"/>
<path d="M644.5 21.5H733.5C757.104 21.5 779.742 30.8768 796.432 47.5675C813.123 64.2582 822.5 86.8957 822.5 110.5V199.5" stroke="#7A68E7" stroke-width="42.6667" stroke-linecap="round" stroke-linejoin="round"/>
<path d="M822.5 644.5V733.5C822.5 757.105 813.123 779.742 796.432 796.433C779.742 813.123 757.104 822.5 733.5 822.5H644.5" stroke="#7A68E7" stroke-width="42.6667" stroke-linecap="round" stroke-linejoin="round"/>
<path d="M199.5 822.5H110.5C86.8957 822.5 64.2582 813.123 47.5675 796.433C30.8768 779.742 21.5 757.105 21.5 733.5V644.5" stroke="#7A68E7" stroke-width="42.6667" stroke-linecap="round" stroke-linejoin="round"/>
<defs>
<clipPath id="clip0_1_46">
<rect width="647" height="581" fill="white" transform="translate(98 131)"/>
</clipPath>
</defs>
</svg>
