<?xml version="1.0" encoding="UTF-8" standalone="no"?>
<!DOCTYPE svg PUBLIC "-//W3C//DTD SVG 1.1//EN" "http://www.w3.org/Graphics/SVG/1.1/DTD/svg11.dtd">
<svg width="100%" height="100%" viewBox="0 0 200 199" version="1.1" xmlns="http://www.w3.org/2000/svg" xmlns:xlink="http://www.w3.org/1999/xlink" xml:space="preserve" xmlns:serif="http://www.serif.com/" style="fill-rule:evenodd;clip-rule:evenodd;stroke-linejoin:round;stroke-miterlimit:2;">
  <rect width="200" height="199" fill="#073e57"/>
    <g transform="matrix(0.709796,0,0,0.709796,29.0204,11.2137)">
        <path d="M124.615,158.942C194.326,134.262 190.916,42.893 140.767,0.863C184.318,20.349 206.756,72.952 198.203,118.905C191.512,154.854 164.558,184.522 129.69,194.524C111.34,199.788 91.695,200.819 73.085,196.201C36.436,187.108 7.653,155.954 1.303,118.778C-3.783,88.998 6.075,58.343 29.922,38.996C54.808,18.806 92.107,14.056 119.324,32.517C146.142,50.708 155.776,89.452 135.231,116.111C124.748,129.714 107.413,137.633 90.191,135.012C72.184,132.272 58.17,116.038 60.606,97.494C63.655,121.563 92.134,130.674 109.243,113.883C125.024,98.394 116.512,74.337 100.517,62.603C87.184,52.821 68.389,55.268 55.26,64.22C39.06,75.266 32.739,94.717 36.289,113.574C44.063,154.866 87.626,172.037 124.615,158.942L124.615,158.942Z" style="fill:url(#_Radial1);"/>
    </g>
    <g transform="matrix(2.72599,0,0,2.72599,-186.509,-236.609)">
        <path d="M83.203,149.458C83.899,149.458 84.431,149.69 84.799,150.154C85.167,150.618 85.351,151.27 85.351,152.11C85.351,153.086 85.115,153.838 84.643,154.366C84.171,154.894 83.515,155.158 82.675,155.158C82.267,155.158 81.859,155.066 81.451,154.882L80.683,155.194L80.503,155.074L80.587,152.746L80.515,146.722L81.739,146.626L81.691,150.286L81.763,150.286C82.011,150.07 82.243,149.9 82.459,149.776C82.675,149.652 82.923,149.546 83.203,149.458ZM82.723,154.318C83.187,154.318 83.551,154.152 83.815,153.82C84.079,153.488 84.211,152.986 84.211,152.314C84.211,151.714 84.107,151.252 83.899,150.928C83.691,150.604 83.391,150.442 82.999,150.442C82.575,150.442 82.135,150.682 81.679,151.162L81.655,152.602L81.691,153.994C82.051,154.21 82.395,154.318 82.723,154.318Z" style="fill:rgb(44,221,214);fill-rule:nonzero;"/>
        <path d="M89.335,149.506C89.423,149.506 89.523,149.514 89.635,149.53L89.635,150.694L89.503,150.73C89.375,150.69 89.227,150.67 89.059,150.67C88.811,150.67 88.579,150.762 88.363,150.946C88.147,151.13 87.939,151.426 87.739,151.834L87.727,152.626L87.799,155.05L86.575,155.05L86.659,152.734L86.587,149.602L87.751,149.494L87.739,150.598L87.823,150.598C88.039,150.214 88.279,149.936 88.543,149.764C88.807,149.592 89.071,149.506 89.335,149.506Z" style="fill:rgb(44,221,214);fill-rule:nonzero;"/>
        <path d="M90.655,152.734L90.619,149.602L91.819,149.494L91.771,152.626L91.807,155.05L90.607,155.05L90.655,152.734ZM91.231,146.938C91.431,146.938 91.587,146.996 91.699,147.112C91.811,147.228 91.867,147.39 91.867,147.598C91.867,147.814 91.807,147.986 91.687,148.114C91.567,148.242 91.403,148.306 91.195,148.306C90.987,148.306 90.825,148.246 90.709,148.126C90.593,148.006 90.535,147.842 90.535,147.634C90.535,147.426 90.597,147.258 90.721,147.13C90.845,147.002 91.015,146.938 91.231,146.938Z" style="fill:rgb(44,221,214);fill-rule:nonzero;"/>
        <path d="M95.239,149.422C95.719,149.422 96.187,149.514 96.643,149.698L96.475,150.658L96.319,150.694C95.903,150.414 95.495,150.274 95.095,150.274C94.855,150.274 94.665,150.338 94.525,150.466C94.385,150.594 94.315,150.75 94.315,150.934C94.315,151.134 94.397,151.294 94.561,151.414C94.725,151.534 94.979,151.666 95.323,151.81C95.635,151.946 95.889,152.074 96.085,152.194C96.281,152.314 96.449,152.474 96.589,152.674C96.729,152.874 96.799,153.122 96.799,153.418C96.799,153.722 96.719,154.008 96.559,154.276C96.399,154.544 96.163,154.758 95.851,154.918C95.539,155.078 95.163,155.158 94.723,155.158C94.171,155.158 93.611,155.034 93.043,154.786L93.187,153.766L93.319,153.682C93.551,153.882 93.807,154.04 94.087,154.156C94.367,154.272 94.623,154.33 94.855,154.33C95.111,154.33 95.317,154.26 95.473,154.12C95.629,153.98 95.707,153.814 95.707,153.622C95.707,153.422 95.627,153.264 95.467,153.148C95.307,153.032 95.055,152.894 94.711,152.734C94.399,152.598 94.143,152.47 93.943,152.35C93.743,152.23 93.573,152.066 93.433,151.858C93.293,151.65 93.223,151.394 93.223,151.09C93.223,150.602 93.403,150.202 93.763,149.89C94.123,149.578 94.615,149.422 95.239,149.422Z" style="fill:rgb(44,221,214);fill-rule:nonzero;"/>
        <path d="M100.075,149.41C100.627,149.41 101.063,149.542 101.383,149.806C101.703,150.07 101.863,150.438 101.863,150.91C101.863,151.054 101.839,151.534 101.791,152.35C101.743,153.15 101.719,153.618 101.719,153.754C101.719,153.906 101.745,154.012 101.797,154.072C101.849,154.132 101.939,154.162 102.067,154.162C102.147,154.162 102.267,154.146 102.427,154.114L102.535,154.198L102.415,154.87C102.183,155.014 101.931,155.102 101.659,155.134C101.411,155.11 101.211,155.02 101.059,154.864C100.907,154.708 100.815,154.502 100.783,154.246L100.699,154.246C100.291,154.678 99.875,154.978 99.451,155.146C98.899,155.138 98.465,154.994 98.149,154.714C97.833,154.434 97.675,154.054 97.675,153.574C97.675,152.862 98.063,152.418 98.839,152.242L100.735,151.822L100.747,151.174C100.747,150.878 100.673,150.654 100.525,150.502C100.377,150.35 100.163,150.274 99.883,150.274C99.611,150.274 99.339,150.336 99.067,150.46C98.795,150.584 98.495,150.778 98.167,151.042L98.071,150.982L97.915,150.13C98.619,149.65 99.339,149.41 100.075,149.41ZM99.175,152.902C99.031,152.934 98.927,152.988 98.863,153.064C98.799,153.14 98.767,153.258 98.767,153.418C98.767,153.658 98.833,153.846 98.965,153.982C99.097,154.118 99.275,154.186 99.499,154.186C99.875,154.186 100.275,153.942 100.699,153.454L100.735,152.53L99.175,152.902Z" style="fill:rgb(44,221,214);fill-rule:nonzero;"/>
        <path d="M104.263,153.754C104.463,153.754 104.619,153.812 104.731,153.928C104.843,154.044 104.899,154.206 104.899,154.414C104.899,154.63 104.839,154.802 104.719,154.93C104.599,155.058 104.435,155.122 104.227,155.122C104.019,155.122 103.857,155.062 103.741,154.942C103.625,154.822 103.567,154.658 103.567,154.45C103.567,154.242 103.629,154.074 103.753,153.946C103.877,153.818 104.047,153.754 104.263,153.754Z" style="fill:rgb(44,221,214);fill-rule:nonzero;"/>
        <path d="M108.835,149.458C109.531,149.458 110.063,149.69 110.431,150.154C110.799,150.618 110.983,151.27 110.983,152.11C110.983,153.086 110.747,153.838 110.275,154.366C109.803,154.894 109.147,155.158 108.307,155.158C107.899,155.158 107.491,155.066 107.083,154.882L106.315,155.194L106.135,155.074L106.219,152.746L106.147,146.722L107.371,146.626L107.323,150.286L107.395,150.286C107.643,150.07 107.875,149.9 108.091,149.776C108.307,149.652 108.555,149.546 108.835,149.458ZM108.355,154.318C108.819,154.318 109.183,154.152 109.447,153.82C109.711,153.488 109.843,152.986 109.843,152.314C109.843,151.714 109.739,151.252 109.531,150.928C109.323,150.604 109.023,150.442 108.631,150.442C108.207,150.442 107.767,150.682 107.311,151.162L107.287,152.602L107.323,153.994C107.683,154.21 108.027,154.318 108.355,154.318Z" style="fill:rgb(44,221,214);fill-rule:nonzero;"/>
        <path d="M117.391,154.198L117.283,154.87C117.019,155.022 116.759,155.11 116.503,155.134C116.263,155.094 116.073,155.008 115.933,154.876C115.793,154.744 115.687,154.546 115.615,154.282L115.531,154.282C115.059,154.706 114.579,154.986 114.091,155.122C113.491,155.122 113.031,154.982 112.711,154.702C112.391,154.422 112.235,154.022 112.243,153.502L112.267,152.002L112.219,149.602L113.431,149.494L113.371,153.166C113.363,153.462 113.429,153.694 113.569,153.862C113.709,154.03 113.919,154.114 114.199,154.114C114.623,154.114 115.059,153.914 115.507,153.514L115.507,149.602L116.671,149.494L116.587,153.766C116.587,153.91 116.611,154.012 116.659,154.072C116.707,154.132 116.791,154.162 116.911,154.162C117.007,154.162 117.131,154.146 117.283,154.114L117.391,154.198Z" style="fill:rgb(44,221,214);fill-rule:nonzero;"/>
        <path d="M118.555,152.734L118.519,149.602L119.719,149.494L119.671,152.626L119.707,155.05L118.507,155.05L118.555,152.734ZM119.131,146.938C119.331,146.938 119.487,146.996 119.599,147.112C119.711,147.228 119.767,147.39 119.767,147.598C119.767,147.814 119.707,147.986 119.587,148.114C119.467,148.242 119.303,148.306 119.095,148.306C118.887,148.306 118.725,148.246 118.609,148.126C118.493,148.006 118.435,147.842 118.435,147.634C118.435,147.426 118.497,147.258 118.621,147.13C118.745,147.002 118.915,146.938 119.131,146.938Z" style="fill:rgb(44,221,214);fill-rule:nonzero;"/>
        <path d="M122.671,152.614L122.755,155.05L121.531,155.05L121.615,152.722L121.543,146.722L122.767,146.626L122.671,152.614Z" style="fill:rgb(44,221,214);fill-rule:nonzero;"/>
        <path d="M128.875,152.614L128.911,153.766C128.919,153.918 128.943,154.022 128.983,154.078C129.023,154.134 129.103,154.162 129.223,154.162C129.311,154.162 129.435,154.146 129.595,154.114L129.703,154.198L129.583,154.87C129.351,155.014 129.099,155.102 128.827,155.134C128.579,155.11 128.377,155.024 128.221,154.876C128.065,154.728 127.967,154.534 127.927,154.294L127.831,154.294C127.599,154.494 127.391,154.656 127.207,154.78C127.023,154.904 126.819,155.018 126.595,155.122C125.795,155.122 125.181,154.876 124.753,154.384C124.325,153.892 124.111,153.198 124.111,152.302C124.111,151.382 124.351,150.672 124.831,150.172C125.311,149.672 125.979,149.422 126.835,149.422C127.115,149.422 127.427,149.454 127.771,149.518L127.747,146.722L128.959,146.626L128.875,152.614ZM126.715,150.262C126.259,150.262 125.901,150.418 125.641,150.73C125.381,151.042 125.251,151.506 125.251,152.122C125.251,152.77 125.371,153.266 125.611,153.61C125.851,153.954 126.187,154.126 126.619,154.126C126.819,154.126 127.011,154.078 127.195,153.982C127.379,153.886 127.575,153.722 127.783,153.49L127.807,152.722L127.771,150.538C127.387,150.354 127.035,150.262 126.715,150.262Z" style="fill:rgb(44,221,214);fill-rule:nonzero;"/>
    </g>
    <defs>
        <radialGradient id="_Radial1" cx="0" cy="0" r="1" gradientUnits="userSpaceOnUse" gradientTransform="matrix(52.186,-99.1373,99.1373,52.186,88.8208,100)"><stop offset="0" style="stop-color:rgb(44,240,204);stop-opacity:1"/><stop offset="0.53" style="stop-color:rgb(44,230,209);stop-opacity:1"/><stop offset="1" style="stop-color:rgb(44,195,228);stop-opacity:1"/></radialGradient>
    </defs>
</svg>
