<svg width="161" height="44" viewBox="0 0 161 44" fill="none" xmlns="http://www.w3.org/2000/svg">
<mask id="mask0_2871_5371" style="mask-type:luminance" maskUnits="userSpaceOnUse" x="0" y="0" width="44" height="44">
<path d="M43.034 0.483398H0V43.5174H43.034V0.483398Z" fill="white"/>
</mask>
<g mask="url(#mask0_2871_5371)">
<path d="M41.5383 40.443H2.26994C1.70815 40.443 1.35703 39.8109 1.63792 39.3018L11.4562 21.6185L21.2744 3.93519C21.5553 3.43046 22.2575 3.43046 22.5384 3.93519L28.8542 15.3115C25.0577 16.2507 22.2444 19.6786 22.2444 23.7647C22.2444 28.5751 26.1418 32.4725 30.9522 32.4725C33.3091 32.4725 35.4508 31.5377 37.0177 30.0103L42.1749 39.3018C42.4558 39.8066 42.1045 40.443 41.5427 40.443H41.5383Z" fill="url(#paint0_linear_2871_5371)" stroke="url(#paint1_linear_2871_5371)" stroke-width="1.5592" stroke-linecap="round" stroke-linejoin="round"/>
<path fill-rule="evenodd" clip-rule="evenodd" d="M31.7627 15.8157C27.7809 15.8157 24.5552 19.0415 24.5552 23.0232C24.5552 27.0051 27.7809 30.2308 31.7627 30.2308C34.6779 30.2308 37.193 28.5005 38.3276 26.0019C38.6702 25.2475 39.5595 24.9136 40.314 25.2562C41.0684 25.5988 41.4022 26.4881 41.0596 27.2426C39.4557 30.7746 35.8964 33.2313 31.7627 33.2313C26.1238 33.2313 21.5547 28.6622 21.5547 23.0232C21.5547 17.3844 26.1238 12.8152 31.7627 12.8152C33.3446 12.8152 34.8435 13.1753 36.1829 13.8192C36.9296 14.1782 37.244 15.0746 36.885 15.8214C36.5259 16.5681 35.6295 16.8825 34.8828 16.5235C33.94 16.0702 32.8845 15.8157 31.7627 15.8157Z" fill="url(#paint2_linear_2871_5371)"/>
</g>
<path d="M60.7064 31.1536C56.1571 31.1536 53.3906 27.9875 53.3906 23.5304C53.3906 18.9811 56.4644 15.7843 60.7986 15.7843C65.102 15.7843 67.3152 18.3356 67.684 21.7168H63.9954C63.7188 20.1492 62.7966 18.8889 60.8908 18.8889C58.6776 18.8889 57.2022 20.5795 57.2022 23.4689C57.2022 26.3584 58.5854 28.049 60.8601 28.049C62.8581 28.049 63.7188 26.8194 63.9954 25.3133H67.684C67.2844 28.6023 65.0405 31.1536 60.7064 31.1536ZM78.2329 15.7843C78.6018 15.7843 78.9706 15.8458 79.1551 15.8765L79.1243 19.5651C78.9092 19.4729 78.6632 19.4114 78.0792 19.4114C76.2349 19.4114 74.6672 20.6717 74.4213 22.9464V30.9999H70.6712V15.938H74.2676L74.3291 18.3663C75.0668 16.8601 76.2964 15.7843 78.2329 15.7843ZM95.6497 27.8338L95.8956 30.8769C95.3116 31.0306 94.6353 31.1536 93.8668 31.1536C92.2377 31.1536 91.0389 30.3237 90.6086 28.6945C90.1167 29.6167 88.795 31.1536 85.5674 31.1536C82.2169 31.1536 80.4648 29.4937 80.4648 27.0654C80.4648 23.4997 83.9998 22.3316 88.1187 22.3316H90.4549V21.5631C90.4549 19.811 89.4097 18.7045 87.3195 18.7045C85.5367 18.7045 84.4301 19.5651 84.2764 21.0406H80.8337C81.0796 17.6593 83.6924 15.7843 87.5347 15.7843C91.8074 15.7843 94.1128 18.0282 94.1128 21.7783V27.0654C94.1128 27.6494 94.4201 27.9875 94.8812 27.9875C95.1271 27.9875 95.3116 27.9568 95.6497 27.8338ZM86.5511 28.3564C89.0101 28.3564 90.4549 26.7887 90.4549 25.4977V24.5141H87.9343C85.4752 24.5141 84.1227 25.2518 84.1227 26.6658C84.1227 27.7416 84.8912 28.3564 86.5511 28.3564ZM115.382 15.938H119.347L114.982 30.9999H110.679L108.281 22.2394C108.189 21.8398 108.035 21.1021 108.005 20.7947H107.912C107.882 21.1021 107.759 21.8398 107.666 22.2394L105.269 30.9999H100.965L96.5702 15.938H100.535L102.84 25.5592C102.994 26.2969 103.179 26.9117 103.24 27.3727H103.332C103.394 26.9117 103.578 26.2969 103.763 25.5592L106.222 15.938H109.695L112.185 25.5592C112.369 26.2969 112.523 26.9117 112.615 27.3727H112.708C112.769 26.9117 112.892 26.3584 113.107 25.5592L115.382 15.938ZM126.926 27.8338L127.172 30.8769C126.588 31.0306 125.942 31.1536 125.112 31.1536C122.868 31.1536 121.67 29.7704 121.67 27.3727V9.17554H125.389V27.0654C125.389 27.6494 125.727 27.9875 126.188 27.9875C126.434 27.9875 126.588 27.9568 126.926 27.8338ZM143.514 23.5612V24.3296H132.725C133.001 26.7887 134.446 28.1719 136.598 28.1719C138.842 28.1719 139.672 27.0039 139.917 26.0817H143.452C142.93 28.7252 140.84 31.1536 136.444 31.1536C131.833 31.1536 129.036 27.9568 129.036 23.4997C129.036 18.9504 132.171 15.7843 136.475 15.7843C140.932 15.7843 143.514 18.8582 143.514 23.5612ZM136.505 18.6737C134.63 18.6737 133.186 19.811 132.786 22.0242H139.948C139.641 19.7188 138.38 18.6737 136.505 18.6737ZM160.294 23.5612V24.3296H149.505C149.781 26.7887 151.226 28.1719 153.378 28.1719C155.622 28.1719 156.452 27.0039 156.698 26.0817H160.233C159.71 28.7252 157.62 31.1536 153.224 31.1536C148.613 31.1536 145.816 27.9568 145.816 23.4997C145.816 18.9504 148.951 15.7843 153.255 15.7843C157.712 15.7843 160.294 18.8582 160.294 23.5612ZM153.286 18.6737C151.411 18.6737 149.966 19.811 149.566 22.0242H156.728C156.421 19.7188 155.161 18.6737 153.286 18.6737Z" fill="#242836"/>
<defs>
<linearGradient id="paint0_linear_2871_5371" x1="42.2737" y1="3.55664" x2="5.56823" y2="44.0915" gradientUnits="userSpaceOnUse">
<stop offset="0.000950807" stop-color="#FFB200"/>
<stop offset="0.0814769" stop-color="#FFB100"/>
<stop offset="0.156006" stop-color="#FFAF02"/>
<stop offset="0.225461" stop-color="#FEAB04"/>
<stop offset="0.290764" stop-color="#FDA606"/>
<stop offset="0.352838" stop-color="#FCA00A"/>
<stop offset="0.412606" stop-color="#FB980E"/>
<stop offset="0.47099" stop-color="#FA9013"/>
<stop offset="0.528912" stop-color="#F98618"/>
<stop offset="0.587296" stop-color="#F77B1E"/>
<stop offset="0.647064" stop-color="#F56F24"/>
<stop offset="0.709138" stop-color="#F3632B"/>
<stop offset="0.774441" stop-color="#F25532"/>
<stop offset="0.843896" stop-color="#EF473A"/>
<stop offset="0.918425" stop-color="#ED3842"/>
<stop offset="0.998951" stop-color="#EB284B"/>
</linearGradient>
<linearGradient id="paint1_linear_2871_5371" x1="42.2737" y1="3.55664" x2="5.56823" y2="44.0915" gradientUnits="userSpaceOnUse">
<stop offset="0.000950807" stop-color="#FFB200"/>
<stop offset="0.0814769" stop-color="#FFB100"/>
<stop offset="0.156006" stop-color="#FFAF02"/>
<stop offset="0.225461" stop-color="#FEAB04"/>
<stop offset="0.290764" stop-color="#FDA606"/>
<stop offset="0.352838" stop-color="#FCA00A"/>
<stop offset="0.412606" stop-color="#FB980E"/>
<stop offset="0.47099" stop-color="#FA9013"/>
<stop offset="0.528912" stop-color="#F98618"/>
<stop offset="0.587296" stop-color="#F77B1E"/>
<stop offset="0.647064" stop-color="#F56F24"/>
<stop offset="0.709138" stop-color="#F3632B"/>
<stop offset="0.774441" stop-color="#F25532"/>
<stop offset="0.843896" stop-color="#EF473A"/>
<stop offset="0.918425" stop-color="#ED3842"/>
<stop offset="0.998951" stop-color="#EB284B"/>
</linearGradient>
<linearGradient id="paint2_linear_2871_5371" x1="39.6936" y1="14.3154" x2="22.2962" y2="30.9369" gradientUnits="userSpaceOnUse">
<stop offset="0.000950807" stop-color="#FFB200"/>
<stop offset="0.0814769" stop-color="#FFB100"/>
<stop offset="0.156006" stop-color="#FFAF02"/>
<stop offset="0.225461" stop-color="#FEAB04"/>
<stop offset="0.290764" stop-color="#FDA606"/>
<stop offset="0.352838" stop-color="#FCA00A"/>
<stop offset="0.412606" stop-color="#FB980E"/>
<stop offset="0.47099" stop-color="#FA9013"/>
<stop offset="0.528912" stop-color="#F98618"/>
<stop offset="0.587296" stop-color="#F77B1E"/>
<stop offset="0.647064" stop-color="#F56F24"/>
<stop offset="0.709138" stop-color="#F3632B"/>
<stop offset="0.774441" stop-color="#F25532"/>
<stop offset="0.843896" stop-color="#EF473A"/>
<stop offset="0.918425" stop-color="#ED3842"/>
<stop offset="0.998951" stop-color="#EB284B"/>
</linearGradient>
</defs>
</svg>
