<svg id="Layer_1" data-name="Layer 1" xmlns="http://www.w3.org/2000/svg" viewBox="0 0 161 161"><defs><style>.cls-1{fill:#f5cc05;stroke:#000;stroke-width:3px;}.cls-2{fill-rule:evenodd;}</style></defs><g id="Page-1"><g id="Group-23"><circle id="Oval" class="cls-1" cx="80.5" cy="80.5" r="79"/><g id="Group-36"><g id="_" data-name="}"><path id="path-2" class="cls-2" d="M88.7,114.3h2.9c4,0,6.6-.6,7.9-1.9s1.8-3.9,1.8-7.9V93.9c0-4.5.6-7.7,1.9-9.7s3.5-3.4,6.7-4.2c-3.1-.7-5.4-2.1-6.7-4.1s-1.9-5.3-1.9-9.8V55.4c0-4-.6-6.7-1.8-7.9s-3.8-1.9-7.9-1.9H88.7V39.5h2.7c7.1,0,11.8,1,14.2,3.1s3.6,6.4,3.6,12.7V65.6c0,4.3.8,7.2,2.3,8.9s4.3,2.4,8.3,2.4h2.7V83h-2.7c-4,0-6.8.8-8.3,2.5s-2.3,4.6-2.3,9v10.2q0,9.45-3.6,12.6c-2.4,2.1-7.1,3.2-14.2,3.2H88.7Z"/><path id="path-2-2" data-name="path-2" class="cls-2" d="M88.7,114.3h2.9c4,0,6.6-.6,7.9-1.9s1.8-3.9,1.8-7.9V93.9c0-4.5.6-7.7,1.9-9.7s3.5-3.4,6.7-4.2c-3.1-.7-5.4-2.1-6.7-4.1s-1.9-5.3-1.9-9.8V55.4c0-4-.6-6.7-1.8-7.9s-3.8-1.9-7.9-1.9H88.7V39.5h2.7c7.1,0,11.8,1,14.2,3.1s3.6,6.4,3.6,12.7V65.6c0,4.3.8,7.2,2.3,8.9s4.3,2.4,8.3,2.4h2.7V83h-2.7c-4,0-6.8.8-8.3,2.5s-2.3,4.6-2.3,9v10.2q0,9.45-3.6,12.6c-2.4,2.1-7.1,3.2-14.2,3.2H88.7Z"/></g><g id="text831"><g id="_2" data-name="="><path id="path-3" class="cls-2" d="M38.5,85.17H75.8v7.6H38.5Zm0-17.9H75.8v7.5H38.5Z"/><path id="path-3-2" data-name="path-3" class="cls-2" d="M38.5,85.17H75.8v7.6H38.5Zm0-17.9H75.8v7.5H38.5Z"/></g></g></g></g></g></svg>