<svg xmlns="http://www.w3.org/2000/svg" width="584.454" height="158.428" viewBox="0 0 584.454 158.428">
  <g id="Group_657" data-name="Group 657" transform="translate(-55 -19.339)">
    <g id="Group_382" data-name="Group 382" transform="translate(55 19.339)">
      <path id="Path_1" data-name="Path 1" d="M113.575,0a10.5,10.5,0,0,1,9.088,5.247L157.021,64.74a10.5,10.5,0,0,1,0,10.5l-34.358,59.494a10.5,10.5,0,0,1-9.088,5.247H44.853a10.5,10.5,0,0,1-9.088-5.247L1.407,75.238a10.5,10.5,0,0,1,0-10.5L35.765,5.247A10.5,10.5,0,0,1,44.853,0Z" transform="translate(139.978 0) rotate(90)" fill="#356290"/>
      <path id="Path_252" data-name="Path 252" d="M93.213,0a14.133,14.133,0,0,1,12.239,7.066l26.359,45.651a14.133,14.133,0,0,1,0,14.134L105.452,112.5a14.133,14.133,0,0,1-12.239,7.066H40.492A14.133,14.133,0,0,1,28.253,112.5L1.894,66.851a14.133,14.133,0,0,1,0-14.134L28.253,7.066A14.133,14.133,0,0,1,40.492,0Z" transform="translate(129.774 12.377) rotate(90)" fill="#1784b2"/>
      <path id="Path_251" data-name="Path 251" d="M80.363,0a8.5,8.5,0,0,1,7.361,4.25l23.955,41.5a8.5,8.5,0,0,1,0,8.5l-23.955,41.5a8.5,8.5,0,0,1-7.361,4.25H32.454a8.5,8.5,0,0,1-7.361-4.25L1.138,54.246a8.5,8.5,0,0,1,0-8.5L25.094,4.25A8.5,8.5,0,0,1,32.455,0Z" transform="translate(119.986 22.805) rotate(90)" fill="#50bfc3"/>
      <path id="_x3C__x2F__x3E_" d="M105.649,211.521v-8.706l-15.169-5.1,15.169-5.234v-8.706L81,193.869v7.558Zm9,6.81L128.669,174h-6.837l-14.02,44.331Zm16.744-6.81,24.649-10.175v-7.531l-24.649-10.041v8.92l13.78,5.421-13.78,4.513Z" transform="translate(-48.53 -116.936)" fill="#fff"/>
    </g>
    <path id="Path_390" data-name="Path 390" d="M46.243-12.913V42.4h-7.67L10.457,1.833H9.944V42.4H1.6V-12.913H9.322l28.143,40.62h.513v-40.62ZM69.935,43.318a16.806,16.806,0,0,1-7.13-1.472,11.828,11.828,0,0,1-5.037-4.281,12.25,12.25,0,0,1-1.85-6.887,11.164,11.164,0,0,1,1.35-5.78,9.966,9.966,0,0,1,3.646-3.592,19.043,19.043,0,0,1,5.132-2,51.016,51.016,0,0,1,5.78-1.026q3.727-.432,6.05-.716a8.759,8.759,0,0,0,3.376-.932A2.284,2.284,0,0,0,82.3,14.527v-.189A7.326,7.326,0,0,0,80.32,8.856q-1.985-1.945-5.9-1.945A10.286,10.286,0,0,0,68,8.707a9.738,9.738,0,0,0-3.227,3.984l-7.589-1.729a14.64,14.64,0,0,1,3.957-6.117,16.114,16.114,0,0,1,6.009-3.4A23.787,23.787,0,0,1,74.31.375a26.007,26.007,0,0,1,5.28.581,15.781,15.781,0,0,1,5.24,2.12,11.72,11.72,0,0,1,4.011,4.389,15.266,15.266,0,0,1,1.566,7.387V42.4H82.521V36.728H82.2a11.491,11.491,0,0,1-2.35,3.079,12.484,12.484,0,0,1-4.024,2.512A15.611,15.611,0,0,1,69.935,43.318Zm1.756-6.482a11.681,11.681,0,0,0,5.739-1.323,9.356,9.356,0,0,0,3.646-3.471,8.969,8.969,0,0,0,1.256-4.6V22.09a4.093,4.093,0,0,1-1.661.8,22.9,22.9,0,0,1-2.8.621q-1.566.257-3.052.459l-2.485.338a19.767,19.767,0,0,0-4.281,1,7.322,7.322,0,0,0-3.079,2.012,5.076,5.076,0,0,0-1.148,3.471,5.136,5.136,0,0,0,2.215,4.524A9.733,9.733,0,0,0,71.691,36.836ZM120.636.915V7.4H97.976V.915ZM104.052-9.024h8.075V30.219a7.012,7.012,0,0,0,.7,3.525,3.571,3.571,0,0,0,1.823,1.593,6.933,6.933,0,0,0,2.444.419,9.444,9.444,0,0,0,1.7-.135q.729-.135,1.134-.216l1.458,6.671a14.5,14.5,0,0,1-2,.554,16.6,16.6,0,0,1-3.241.311,14.218,14.218,0,0,1-5.942-1.134,10.192,10.192,0,0,1-4.456-3.673,10.8,10.8,0,0,1-1.7-6.239ZM129.662,42.4V.915h8.075V42.4Zm4.078-47.886A5.06,5.06,0,0,1,130.135-6.9a4.505,4.505,0,0,1-1.5-3.39,4.534,4.534,0,0,1,1.5-3.417,5.06,5.06,0,0,1,3.606-1.418,5.06,5.06,0,0,1,3.606,1.418,4.534,4.534,0,0,1,1.5,3.417,4.505,4.505,0,0,1-1.5,3.39A5.06,5.06,0,0,1,133.741-5.486ZM184.2.915,169.154,42.4h-8.643L145.441.915h8.67l10.506,31.924h.432L175.528.915Zm24.124,42.322A20.22,20.22,0,0,1,197.776,40.6a17.55,17.55,0,0,1-6.806-7.427,24.922,24.922,0,0,1-2.39-11.249,25.159,25.159,0,0,1,2.39-11.235,18.33,18.33,0,0,1,6.7-7.589A18.452,18.452,0,0,1,207.755.375a20.328,20.328,0,0,1,6.806,1.161,16.485,16.485,0,0,1,5.915,3.646,17.145,17.145,0,0,1,4.132,6.441,26.966,26.966,0,0,1,1.512,9.6v2.863H193.144v-6.05h25.064a12,12,0,0,0-1.3-5.658,9.855,9.855,0,0,0-3.633-3.9,10.258,10.258,0,0,0-5.469-1.431,10.54,10.54,0,0,0-5.928,1.661,11.225,11.225,0,0,0-3.889,4.321,12.455,12.455,0,0,0-1.364,5.766v4.726A15.569,15.569,0,0,0,198.1,30.6a10.377,10.377,0,0,0,4.119,4.443,12.165,12.165,0,0,0,6.185,1.526,12.6,12.6,0,0,0,4.186-.662,8.889,8.889,0,0,0,3.268-1.985,8.683,8.683,0,0,0,2.107-3.268l7.643,1.377a13.809,13.809,0,0,1-3.282,5.9,15.9,15.9,0,0,1-5.915,3.916A22.052,22.052,0,0,1,208.323,43.237Zm27.554-.837V-12.913h20.256a21.738,21.738,0,0,1,9.75,1.931,13.412,13.412,0,0,1,5.78,5.213,14.367,14.367,0,0,1,1.918,7.387,12.175,12.175,0,0,1-1.269,5.82,10.353,10.353,0,0,1-3.39,3.781,14.979,14.979,0,0,1-4.659,2.066v.54a11.171,11.171,0,0,1,5.388,1.769,12.888,12.888,0,0,1,4.362,4.632,14.379,14.379,0,0,1,1.729,7.292,14.67,14.67,0,0,1-1.985,7.6,13.6,13.6,0,0,1-6.117,5.321,24.713,24.713,0,0,1-10.56,1.958Zm8.346-7.157h12.046q6,0,8.589-2.323a7.473,7.473,0,0,0,2.593-5.807,9.113,9.113,0,0,0-1.323-4.807,9.476,9.476,0,0,0-3.768-3.484,12.2,12.2,0,0,0-5.793-1.3H244.223Zm0-24.226H255.4a11.574,11.574,0,0,0,5.064-1.08A8.917,8.917,0,0,0,264.06,6.9,8.014,8.014,0,0,0,265.4,2.265a7.679,7.679,0,0,0-2.4-5.753q-2.4-2.323-7.373-2.323h-11.4Zm52.942,32.3a16.806,16.806,0,0,1-7.13-1.472A11.828,11.828,0,0,1,285,37.565a12.25,12.25,0,0,1-1.85-6.887,11.163,11.163,0,0,1,1.35-5.78,9.966,9.966,0,0,1,3.646-3.592,19.043,19.043,0,0,1,5.132-2,51.018,51.018,0,0,1,5.78-1.026q3.727-.432,6.05-.716a8.759,8.759,0,0,0,3.376-.932,2.284,2.284,0,0,0,1.053-2.107v-.189a7.326,7.326,0,0,0-1.985-5.483q-1.985-1.945-5.9-1.945a10.286,10.286,0,0,0-6.414,1.8,9.738,9.738,0,0,0-3.227,3.984l-7.589-1.729a14.64,14.64,0,0,1,3.957-6.117,16.115,16.115,0,0,1,6.009-3.4A23.787,23.787,0,0,1,301.54.375a26.007,26.007,0,0,1,5.28.581,15.781,15.781,0,0,1,5.24,2.12,11.72,11.72,0,0,1,4.011,4.389,15.266,15.266,0,0,1,1.566,7.387V42.4h-7.886V36.728h-.324a11.491,11.491,0,0,1-2.35,3.079,12.484,12.484,0,0,1-4.024,2.512A15.611,15.611,0,0,1,297.165,43.318Zm1.756-6.482a11.681,11.681,0,0,0,5.739-1.323,9.356,9.356,0,0,0,3.646-3.471,8.969,8.969,0,0,0,1.256-4.6V22.09a4.093,4.093,0,0,1-1.661.8,22.9,22.9,0,0,1-2.8.621q-1.566.257-3.052.459l-2.485.338a19.766,19.766,0,0,0-4.281,1,7.322,7.322,0,0,0-3.079,2.012,5.076,5.076,0,0,0-1.148,3.471,5.136,5.136,0,0,0,2.215,4.524A9.733,9.733,0,0,0,298.92,36.836Zm60.667-25.793-7.319,1.3a8.817,8.817,0,0,0-1.445-2.674,7.342,7.342,0,0,0-2.66-2.08,9.586,9.586,0,0,0-4.186-.81A10.125,10.125,0,0,0,338.25,8.3a4.567,4.567,0,0,0-2.3,3.93,4.127,4.127,0,0,0,1.539,3.349,12.465,12.465,0,0,0,4.97,2.08l6.59,1.512q5.726,1.323,8.535,4.078a9.582,9.582,0,0,1,2.809,7.157,10.862,10.862,0,0,1-2.147,6.631,14.219,14.219,0,0,1-5.969,4.551,22.18,22.18,0,0,1-8.845,1.648q-6.968,0-11.371-2.984a12.513,12.513,0,0,1-5.4-8.494l7.805-1.188a7.415,7.415,0,0,0,3,4.6,10.272,10.272,0,0,0,5.915,1.553,10.882,10.882,0,0,0,6.347-1.661A4.858,4.858,0,0,0,352.106,31a4.256,4.256,0,0,0-1.445-3.268,9.658,9.658,0,0,0-4.416-2L339.223,24.2q-5.807-1.323-8.575-4.213a10.154,10.154,0,0,1-2.768-7.319,10.463,10.463,0,0,1,2.053-6.428A13.538,13.538,0,0,1,335.6,1.928,20.857,20.857,0,0,1,343.9.375q6.725,0,10.587,2.9A13.631,13.631,0,0,1,359.587,11.043Zm27.663,32.194A20.22,20.22,0,0,1,376.7,40.6a17.55,17.55,0,0,1-6.806-7.427,24.922,24.922,0,0,1-2.39-11.249,25.159,25.159,0,0,1,2.39-11.235,18.33,18.33,0,0,1,6.7-7.589A18.452,18.452,0,0,1,386.682.375a20.327,20.327,0,0,1,6.806,1.161A16.485,16.485,0,0,1,399.4,5.182a17.146,17.146,0,0,1,4.132,6.441,26.966,26.966,0,0,1,1.512,9.6v2.863H372.071v-6.05h25.064a12,12,0,0,0-1.3-5.658,9.855,9.855,0,0,0-3.633-3.9,10.258,10.258,0,0,0-5.469-1.431,10.54,10.54,0,0,0-5.928,1.661,11.225,11.225,0,0,0-3.889,4.321,12.455,12.455,0,0,0-1.364,5.766v4.726a15.569,15.569,0,0,0,1.472,7.076,10.377,10.377,0,0,0,4.119,4.443,12.165,12.165,0,0,0,6.185,1.526,12.6,12.6,0,0,0,4.186-.662,8.889,8.889,0,0,0,3.268-1.985,8.683,8.683,0,0,0,2.107-3.268l7.643,1.377a13.808,13.808,0,0,1-3.281,5.9,15.9,15.9,0,0,1-5.915,3.916A22.052,22.052,0,0,1,387.249,43.237Z" transform="translate(234.406 82.128)" fill="#fff"/>
  </g>
</svg>
