<?xml version="1.0" encoding="utf-8"?><svg xmlns="http://www.w3.org/2000/svg" xmlns:xlink="http://www.w3.org/1999/xlink"><symbol viewBox="0 0 16 20" id="arrow-d" xmlns="http://www.w3.org/2000/svg"><path fill-rule="evenodd" d="M16 11.916l-1.41-1.425L9 16.13V0H7v16.13l-5.59-5.64L0 11.917 8 20z"/></symbol><symbol viewBox="0 0 20 16" id="arrow-r" xmlns="http://www.w3.org/2000/svg"><path fill-rule="evenodd" d="M11.916 0L10.49 1.41 16.13 7H0v2h16.13l-5.64 5.59L11.917 16 20 8z"/></symbol><symbol viewBox="0 0 22 19" id="error" xmlns="http://www.w3.org/2000/svg"><path fill="#F8E71C" fill-rule="evenodd" d="M0 19h22L11 0 0 19zm12-3h-2v-2h2v2zm0-4h-2V8h2v4z"/></symbol><symbol fill="none" viewBox="0 0 36 40" id="icon-next" xmlns="http://www.w3.org/2000/svg"><path d="M12.32 36.201c-2.888-2.795-4.541-7.249-4.96-13.36H1.48c-.628 0-1.07-.29-1.324-.87-.254-.61-.15-1.13.314-1.562l11.49-11.42a1.385 1.385 0 0 1 1.01-.424c.39 0 .726.141 1.01.424l11.49 11.42c.284.268.426.603.426 1.004 0 .178-.037.364-.112.558-.254.58-.695.87-1.324.87h-5.633c.195 2.394.587 4.382 1.178 5.967.591 1.583 1.418 2.85 2.48 3.803 2.469 2.215 6.695 3.004 12.68 2.364.389-.03.643.141.763.513a.668.668 0 0 1 .022.2c0 .298-.127.506-.381.625l-.898.446c-.419.208-1.096.51-2.031.904-.936.393-1.87.75-2.806 1.07-.934.32-1.967.606-3.096.86-1.13.252-2.129.378-2.996.378-5.027 0-8.835-1.256-11.423-3.77z" fill="#fff"/><path opacity=".4" d="M12.97 3.352c-.389 0-.725.142-1.01.424L1.48 14.736c-.628 0-1.07-.29-1.324-.87-.254-.61-.15-1.13.314-1.56L11.96.884A1.385 1.385 0 0 1 12.97.46c.39 0 .726.141 1.01.424l11.49 11.42c.284.268.426.602.426 1.004 0 .179-.037.364-.112.558-.254.58-.695.87-1.324.87L13.98 3.776a1.384 1.384 0 0 0-1.01-.424z" fill="#fff"/></symbol><symbol fill="none" viewBox="0 0 26 16" id="s-custom" xmlns="http://www.w3.org/2000/svg"><path d="M7.312 0c4.038 0 7.312 3.482 7.312 7.778 0 4.295-3.274 7.778-7.312 7.778S0 12.073 0 7.778C0 3.482 3.274 0 7.312 0zm11.677.456c2.019 0 3.656 3.278 3.656 7.322 0 4.043-1.637 7.322-3.656 7.322-2.02 0-3.656-3.279-3.656-7.322S16.97.456 18.989.456zm5.651.762c.71 0 1.286 2.937 1.286 6.56 0 3.622-.576 6.56-1.286 6.56-.71 0-1.285-2.938-1.285-6.56 0-3.623.575-6.56 1.285-6.56z" fill="#FD5426"/></symbol><symbol viewBox="0 0 24 24" id="s-linkedin" xmlns="http://www.w3.org/2000/svg"><path d="M23.994 24v-.001H24v-8.802c0-4.306-.927-7.623-5.961-7.623-2.42 0-4.044 1.328-4.707 2.587h-.07V7.976H8.489v16.023h4.97v-7.934c0-2.089.396-4.109 2.983-4.109 2.549 0 2.587 2.384 2.587 4.243V24zM.396 7.977h4.976V24H.396zM2.882 0C1.291 0 0 1.291 0 2.882s1.291 2.909 2.882 2.909 2.882-1.318 2.882-2.909A2.884 2.884 0 0 0 2.882 0z" data-original="#000000"/></symbol><symbol fill="none" viewBox="0 0 16 20" id="s-portal" xmlns="http://www.w3.org/2000/svg"><path fill-rule="evenodd" clip-rule="evenodd" d="M8 14.75a1.403 1.403 0 0 1-.983-.405 1.373 1.373 0 0 1-.406-.972v-.04H5.193v.04c0 .737.296 1.444.823 1.965a2.827 2.827 0 0 0 1.987.813c.746 0 1.46-.292 1.987-.813a2.762 2.762 0 0 0 .823-2.005H9.396v.04a1.363 1.363 0 0 1-.408.974 1.394 1.394 0 0 1-.986.402H8zM5.278 6.033c-.4 0-.792.118-1.124.338-.333.22-.592.533-.745.899a1.98 1.98 0 0 0 .44 2.18 2.046 2.046 0 0 0 2.206.433 2.02 2.02 0 0 0 .908-.736 1.986 1.986 0 0 0-.252-2.529 2.027 2.027 0 0 0-1.433-.585zm-.644 2.002a.631.631 0 0 1 .396-.59.65.65 0 0 1 .702.137.634.634 0 0 1-.454 1.087.647.647 0 0 1-.455-.186.633.633 0 0 1-.189-.448zM1.858 4.503c3.9-1.227 5.383-1.98 6.051-2.356.669.376 2.154 1.131 6.052 2.356 0 .435.248 13.749-6.052 13.738-6.3-.01-6.051-13.294-6.051-13.738zm6.051 15.503c8.146.02 7.827-16.223 7.827-16.784C10.692 1.644 8.776.656 7.909.175 7.047.655 5.127 1.641.083 3.222c0 .56-.32 16.804 7.826 16.784zm.66-12.69V8.66h3.927V7.315H8.57z" fill="#FD5426"/></symbol><symbol fill="none" viewBox="0 0 20 19" id="s-twitter" xmlns="http://www.w3.org/2000/svg"><path d="M15.465.659h3.003l-6.56 7.505 7.717 10.212h-6.042L8.85 12.182l-5.415 6.194H.431l7.016-8.027L.044.659H6.24l4.278 5.661L15.465.66zm-1.054 15.918h1.664L5.335 2.363H3.55l10.861 14.214z" fill="#FD5426"/></symbol><symbol fill="none" viewBox="0 0 21 20" id="s-website" xmlns="http://www.w3.org/2000/svg"><path fill-rule="evenodd" clip-rule="evenodd" d="M10.498 1.664a8.336 8.336 0 1 0 0 16.672 8.336 8.336 0 0 0 0-16.672zM.646 10c0-5.441 4.41-9.852 9.851-9.852C15.94.148 20.35 4.56 20.35 10c0 5.441-4.41 9.852-9.851 9.852C5.057 19.852.646 15.44.646 10z" fill="#FD5426"/><path fill-rule="evenodd" clip-rule="evenodd" d="M.646 10c0-.419.339-.758.758-.758h18.188a.758.758 0 0 1 0 1.516H1.404A.758.758 0 0 1 .646 10z" fill="#FD5426"/><path fill-rule="evenodd" clip-rule="evenodd" d="M8.515 4.042C7.878 5.528 7.466 7.634 7.466 10s.412 4.472 1.049 5.958c.319.744.679 1.298 1.04 1.655.358.354.676.477.943.477.266 0 .584-.123.942-.477.361-.357.721-.91 1.04-1.655.637-1.486 1.049-3.592 1.049-5.958s-.412-4.472-1.049-5.958c-.319-.744-.679-1.298-1.04-1.655-.358-.354-.676-.477-.942-.477-.267 0-.585.123-.943.477-.361.357-.721.91-1.04 1.655zM8.49 1.308C9.04.767 9.718.394 10.498.394s1.458.373 2.007.914c.545.539 1.002 1.28 1.368 2.137.736 1.716 1.172 4.034 1.172 6.555 0 2.52-.437 4.838-1.171 6.555-.367.856-.824 1.598-1.369 2.137-.549.541-1.228.913-2.008.913s-1.458-.372-2.007-.913c-.545-.539-1.002-1.28-1.368-2.137C6.387 14.839 5.95 12.52 5.95 10c0-2.52.436-4.839 1.17-6.555.367-.856.824-1.598 1.37-2.137z" fill="#FD5426"/></symbol><symbol viewBox="0 0 18 20" id="socials" xmlns="http://www.w3.org/2000/svg"><path fill-rule="evenodd" d="M15 14.08c-.76 0-1.44.3-1.96.77L5.91 10.7c.05-.23.09-.46.09-.7 0-.24-.04-.47-.09-.7l7.05-4.11c.54.5 1.25.81 2.04.81 1.66 0 3-1.34 3-3s-1.34-3-3-3-3 1.34-3 3c0 .24.04.47.09.7L5.04 7.81C4.5 7.31 3.79 7 3 7c-1.66 0-3 1.34-3 3s1.34 3 3 3c.79 0 1.5-.31 2.04-.81l7.12 4.16c-.05.21-.08.43-.08.65 0 1.61 1.31 2.92 2.92 2.92 1.61 0 2.92-1.31 2.92-2.92 0-1.61-1.31-2.92-2.92-2.92z"/></symbol><symbol viewBox="0 0 8 16" id="socials_fb" xmlns="http://www.w3.org/2000/svg"><path d="M1.73 3.099v2.203H0v2.693h1.73V16h3.55V7.995h2.384s.223-1.291.331-2.703h-2.7V3.45c0-.275.387-.646.77-.646H8V0H5.369c-3.728 0-3.64 2.696-3.64 3.099z"/></symbol><symbol viewBox="0 0 21 20" id="socials_gh" xmlns="http://www.w3.org/2000/svg"><path fill-rule="evenodd" d="M7.125 16.125c0 .111-.076.174-.23.187-.152.014-.228-.034-.228-.145 0-.111.07-.167.208-.167a.34.34 0 0 1 .187.042c.042.027.063.055.063.083zm-1.775-.004c.028-.11.111-.146.25-.104.139.042.201.097.187.167a.195.195 0 0 1-.104.146.177.177 0 0 1-.166 0 .556.556 0 0 1-.146-.105c-.042-.041-.049-.076-.021-.104zM7.523 16c.139 0 .215.042.229.125.014.083-.049.153-.188.208a.462.462 0 0 1-.145-.02c-.042-.014-.07-.063-.084-.146-.014-.084.049-.14.188-.167zm2.685-16c1.89 0 3.64.441 5.25 1.323 1.611.882 2.875 2.082 3.792 3.598.944 1.571 1.417 3.294 1.417 5.169 0 2.288-.646 4.335-1.938 6.14-1.291 1.806-2.979 3.053-5.062 3.742-.223.056-.396.028-.521-.082a.529.529 0 0 1-.188-.414v-3.473c0-.882-.236-1.516-.708-1.902 1.028-.11 1.792-.248 2.292-.414.777-.276 1.375-.69 1.791-1.24.473-.717.709-1.696.709-2.936 0-.524-.098-.979-.292-1.365-.139-.276-.403-.62-.792-1.034.111-.275.18-.606.209-.992a4.63 4.63 0 0 0-.292-1.82c-.278-.082-.667-.027-1.167.166-.333.138-.722.33-1.166.579L13 5.417a9.51 9.51 0 0 0-2.646-.372c-.903 0-1.77.124-2.604.372l-.542-.372A9.4 9.4 0 0 0 6 4.465c-.5-.192-.875-.247-1.125-.165a3.807 3.807 0 0 0-.292 1.82c0 .386.056.703.167.951-.333.413-.576.793-.73 1.137-.152.345-.228.779-.228 1.303 0 1.24.222 2.205.666 2.894.39.58.973 1.006 1.75 1.282.5.166 1.25.303 2.25.414-.36.33-.583.8-.666 1.406-.473.22-.93.303-1.375.248-.723-.055-1.278-.428-1.667-1.117a2.158 2.158 0 0 0-.667-.744 4.316 4.316 0 0 0-.625-.29l-.291-.04c-.306 0-.466.047-.48.144-.013.096.05.2.188.31l.208.165c.195.11.39.29.584.538.166.193.305.413.416.661l.167.331c.139.414.403.73.792.951.333.193.736.317 1.208.373.333.027.68.013 1.042-.042l.458-.041.042 2.522a.529.529 0 0 1-.188.414c-.125.11-.298.138-.52.082-2.112-.689-3.82-1.936-5.126-3.742C.653 14.425 0 12.378 0 10.09c0-1.875.444-3.584 1.333-5.128A9.647 9.647 0 0 1 5 1.323C6.556.441 8.292 0 10.208 0zM4.033 14.033c.056-.055.125-.041.209.042.083.083.097.153.041.208-.055.056-.125.042-.208-.041-.083-.084-.097-.153-.042-.209zm-.69.015c.055-.056.125-.063.208-.021.083.041.111.097.083.166-.028.07-.09.077-.187.021-.097-.055-.132-.11-.104-.166zm1.365 1.313c.028-.028.07-.035.125-.02a.31.31 0 0 1 .146.083.31.31 0 0 1 .083.145c.014.056.007.098-.02.125-.084.084-.18.07-.292-.041-.056-.056-.083-.111-.083-.167 0-.055.014-.097.041-.125zm0-.667c.056-.027.104-.034.146-.02.042.013.077.048.104.104.084.11.084.194 0 .25-.027.028-.062.028-.104 0a1.362 1.362 0 0 0-.146-.084c-.055-.138-.055-.222 0-.25z"/></symbol><symbol viewBox="0 0 16 13" id="socials_mail" xmlns="http://www.w3.org/2000/svg"><path fill-rule="evenodd" d="M14.4 0H1.6C.72 0 .008.72.008 1.6L0 11.2c0 .88.72 1.6 1.6 1.6h12.8c.88 0 1.6-.72 1.6-1.6V1.6c0-.88-.72-1.6-1.6-1.6zm0 3.2L8 7.2l-6.4-4V1.6l6.4 4 6.4-4v1.6z"/></symbol><symbol viewBox="0 0 19 19" id="socials_med" xmlns="http://www.w3.org/2000/svg"><path fill-rule="evenodd" d="M0 0h19v19H0V0zm15.777 4.496v-.213h-3.52L9.754 10.56 6.871 4.283H3.18v.213l1.187 1.441a.423.423 0 0 1 .17.425v5.64a.682.682 0 0 1-.17.552L3.01 14.165v.212h3.817v-.212L5.47 12.554a.682.682 0 0 1-.17-.552V7.125l3.35 7.252h.382l2.842-7.252v5.81c0 .113-.028.198-.085.255l-1.018 1.018v.212h5.005v-.212l-1.018-.976a.407.407 0 0 1-.127-.297V5.768c0-.113.042-.212.127-.297l1.018-.975z"/></symbol><symbol viewBox="0 0 18 14" id="socials_tw" xmlns="http://www.w3.org/2000/svg"><path d="M17.235 1.656a7.06 7.06 0 0 1-2.03.557A3.55 3.55 0 0 0 16.76.258a7.128 7.128 0 0 1-2.246.859A3.536 3.536 0 0 0 8.488 4.34 10.038 10.038 0 0 1 1.2.646a3.509 3.509 0 0 0-.478 1.777c0 1.227.624 2.31 1.572 2.943a3.536 3.536 0 0 1-1.601-.444v.044a3.54 3.54 0 0 0 2.835 3.467c-.296.08-.608.124-.931.124-.229 0-.45-.023-.666-.066a3.538 3.538 0 0 0 3.302 2.456 7.094 7.094 0 0 1-4.39 1.51c-.286 0-.567-.017-.844-.048A9.994 9.994 0 0 0 5.42 14c6.504 0 10.059-5.387 10.059-10.06l-.012-.457a7.06 7.06 0 0 0 1.768-1.827z"/></symbol></svg>